<svg xmlns="http://www.w3.org/2000/svg" viewBox="0 0 250 250"><defs><style>.cls-1{isolation:isolate;}.cls-2,.cls-3,.cls-4,.cls-5{fill:#fff;}.cls-3,.cls-5{opacity:0.3;}.cls-3,.cls-4{mix-blend-mode:hard-light;}.cls-10,.cls-11,.cls-4{opacity:0.2;}.cls-5{mix-blend-mode:soft-light;}.cls-6{fill:#a5cd39;}.cls-7{fill:#a6cd32;}.cls-8{fill:#39b54a;}.cls-9{fill:#00aeef;}.cls-10,.cls-11{fill:#a9d2e3;}.cls-11{fill-rule:evenodd;}</style></defs><g class="cls-1"><g id="Layer_1" data-name="Layer 1"><path class="cls-2" d="M145.71,196.65A82.52,82.52,0,0,1,130.15,198a81.4,81.4,0,0,1-26.9-4.87l-2.78-7a155.91,155.91,0,0,1-8.71-28.74c-2.2-12.13-1.45-21.63,2.2-27.72,9.42,14.75,34.88,48,77.88,57.44A82,82,0,0,1,145.71,196.65Z"/><path class="cls-3" d="M145.71,196.65A82.52,82.52,0,0,1,130.15,198C102,169.09,94,129.66,94,129.66c9.42,14.75,34.88,48,77.88,57.44A82,82,0,0,1,145.71,196.65Z"/><path class="cls-2" d="M195.11,167c-9.77-53.48-38.5-82.85-54-95.23,28.18.6,50.7,15.82,62.57,25.89l8.43,7.16a81.46,81.46,0,0,1-17,62.18Z"/><path class="cls-2" d="M133.58,135.9a10.18,10.18,0,0,1-2.14-1.78c-.8-.68-1.62-1.34-2.45-2-1.6-1.28-3.22-2.53-4.76-3.88-3.15-2.75-6.07-5.77-9.59-8a37.64,37.64,0,0,0-26.72-5.75l-1.29.24c-15.88,3.18-26.21,17.66-32,28.82A82.57,82.57,0,0,1,59.31,78,81.4,81.4,0,0,1,76.5,55.56a80.4,80.4,0,0,1,23.94-15.17c2.11-.86,4.22-1.63,6.35-2.29a80,80,0,0,1,50.49.77c-11.79,2.05-24,6-33,14.21a35.39,35.39,0,0,0-10.83,18.76A42.83,42.83,0,0,0,113.28,85c0,.36,6.3.75,6.82.81,4.47.47,9,1.36,12.26,4.67a17.73,17.73,0,0,1,4.86,11.62,24.06,24.06,0,0,1-5.73,16,3.6,3.6,0,0,0-1.1,2.2,3.43,3.43,0,0,0,.39,1.3c1.54,3.38,2,7.37,2.84,11A5.16,5.16,0,0,1,133.58,135.9Z"/><path class="cls-2" d="M208.53,91.93C192.91,78.66,162.47,59,124.6,65.47c.31-.54.65-1.07,1-1.58,6.87-9.81,21.31-16.06,41.76-18.09,1.37-.13,2.67-.29,3.94-.5a82,82,0,0,1,35,40.4C207.13,87.77,207.88,89.84,208.53,91.93Z"/><path class="cls-2" d="M93.44,188.92A81.87,81.87,0,0,1,59,153.62c4-9.57,13.55-27.7,29.29-30.86.51-.11,1-.2,1.53-.27,0,0,0,0,0,0C81.88,131.83,78.25,150.72,93.44,188.92Z"/><path class="cls-4" d="M86.63,114.7c-15.88,3.19-26.2,17.67-32,28.83A82.62,82.62,0,0,1,59.31,78a89.08,89.08,0,0,1,48.61,15.83c8.93,6.31,18.74,15.46,21.63,26.45.76,2.87,1.12,7-1.39,9.11-1-.58-1.47-1.9-2.17-2.8a31.76,31.76,0,0,0-4.25-4.5,34.89,34.89,0,0,0-16.88-7.91A49.47,49.47,0,0,0,86.63,114.7Z"/><path class="cls-4" d="M86.63,114.7c-15.88,3.19-26.2,17.67-32,28.83A82.11,82.11,0,0,1,50,115.19c48.17-42,89.27,11.83,82.9,19.66C132.9,134.85,117.38,108.53,86.63,114.7Z"/><path class="cls-3" d="M208.53,91.93C192.91,78.66,162.47,59,124.6,65.47c0,0,28.87-12.84,61.63-9.09A82.15,82.15,0,0,1,206.3,85.7C207.13,87.77,207.88,89.84,208.53,91.93Z"/><path class="cls-4" d="M93.44,188.92a81.75,81.75,0,0,1-22.25-17.43c-.68-32.79,17.79-48.35,18.57-49C81.88,131.83,78.25,150.72,93.44,188.92Z"/><path class="cls-5" d="M113.28,85.31S97.67,61.71,76.5,55.56a80.4,80.4,0,0,1,23.94-15.17c2.11-.86,4.22-1.63,6.35-2.29a80,80,0,0,1,50.49.77C104.33,48.09,113.28,85.31,113.28,85.31Z"/><path class="cls-3" d="M195.11,167c-9.77-53.48-38.5-82.85-54-95.23,0,0,40.91,16.2,69.36,64.25A81.79,81.79,0,0,1,195.11,167Z"/><path class="cls-6" d="M159.71,160.11a15.46,15.46,0,0,1,4.85,0,7.64,7.64,0,0,1,4.26,2.53c.62.79,1,2,.38,2.75a2.52,2.52,0,0,1-2.65.4A10.89,10.89,0,0,1,159.71,160.11Z"/><path class="cls-6" d="M155.77,159.62a8.23,8.23,0,0,1,4.8,5.74,2.2,2.2,0,0,1-.51,2.26,2.11,2.11,0,0,1-2.35-.38,6.41,6.41,0,0,1-2.31-3.39A6.14,6.14,0,0,1,155.77,159.62Z"/><path class="cls-6" d="M151,153.85a8.47,8.47,0,0,1,6-1.74,3.62,3.62,0,0,1,1.84.78,2,2,0,0,1,.68,1.81,2.64,2.64,0,0,1-2.32,1.72A6.42,6.42,0,0,1,151,153.85Z"/><path class="cls-6" d="M145.4,153.12a7.07,7.07,0,0,0,.34,6.26,2.68,2.68,0,0,0,1.7,1.45,2.09,2.09,0,0,0,2.21-1.4,3.79,3.79,0,0,0-.2-2.78A6.17,6.17,0,0,0,145.4,153.12Z"/><path class="cls-6" d="M141.86,145.76a11.28,11.28,0,0,1,4.41-1.86,3.82,3.82,0,0,1,4,2,1.92,1.92,0,0,1,.05,1.47,2.48,2.48,0,0,1-2.18,1.16A7.18,7.18,0,0,1,141.86,145.76Z"/><path class="cls-7" d="M136.46,143.47a7.34,7.34,0,0,1,1.8,6.71,3.56,3.56,0,0,1-.62,1.39,1.75,1.75,0,0,1-1.3.71,2.28,2.28,0,0,1-1.83-1.29,5.47,5.47,0,0,1-.59-4.13A5.85,5.85,0,0,1,136.46,143.47Z"/><path class="cls-6" d="M133.21,135a.14.14,0,0,1,.09-.11.13.13,0,0,1,.16.08c2.4,6.56,7.37,12.75,14.37,17.9,6,4.38,8.46,5.56,15.87,9.07l1.16.56a.13.13,0,0,1,.06.17.13.13,0,0,1-.18.06l-1.16-.55c-7.42-3.52-9.92-4.7-15.91-9.1a48.53,48.53,0,0,1-8.58-8,34.16,34.16,0,0,1-5.87-10A.13.13,0,0,1,133.21,135Z"/><path class="cls-6" d="M153.5,156.92a.2.2,0,0,1,0-.08.14.14,0,0,1,.19,0,26.43,26.43,0,0,1,4.7,7.43.14.14,0,0,1-.07.18.13.13,0,0,1-.17-.07,26,26,0,0,0-4.65-7.35A.15.15,0,0,1,153.5,156.92Z"/><path class="cls-6" d="M148.41,153.5v0a.14.14,0,0,1,.16-.1,25.92,25.92,0,0,0,8.23.51.13.13,0,0,1,0,.26,26.43,26.43,0,0,1-8.31-.51A.14.14,0,0,1,148.41,153.5Z"/><path class="cls-6" d="M143.52,149.59a.15.15,0,0,1,.06-.09.13.13,0,0,1,.18,0,31.77,31.77,0,0,1,3.37,7.28.14.14,0,0,1-.09.17.14.14,0,0,1-.16-.08,31.32,31.32,0,0,0-3.34-7.23A.29.29,0,0,1,143.52,149.59Z"/><path class="cls-6" d="M139.37,145.33v0a.13.13,0,0,1,.17-.08,22.51,22.51,0,0,0,7.17.79.13.13,0,0,1,.14.12.13.13,0,0,1-.13.14,22.58,22.58,0,0,1-7.26-.8A.13.13,0,0,1,139.37,145.33Z"/><path class="cls-8" d="M135.14,139.24a.13.13,0,0,1,.08-.1.12.12,0,0,1,.17.06,13.92,13.92,0,0,1,1.12,7.87.13.13,0,0,1-.26,0,13.57,13.57,0,0,0-1.1-7.72A.17.17,0,0,1,135.14,139.24Z"/><path class="cls-9" d="M125.53,132.7h.06a.14.14,0,0,0-.12,0Z"/><path class="cls-9" d="M125.67,132.73s0,0-.07,0Z"/><path class="cls-9" d="M127.07,136.94s0,0,0,0S127.07,137,127.07,136.94Z"/><path class="cls-10" d="M126.9,140.84a.07.07,0,0,1-.06,0,.1.1,0,0,0,0,0h-.06c.07-.05,0-.14,0-.21s0-.16,0-.2-.13-.06-.18,0-.06.06-.1.09a.29.29,0,0,1-.13.05h-.07s0,0-.08,0a1.75,1.75,0,0,0-.33,0,.19.19,0,0,1-.13,0s-.09,0-.13,0l-.17.1c-.11.05-.15,0-.25,0a.29.29,0,0,0-.17.06c-.06,0-.2.11-.28.06s-.27-.18-.25-.28,0,0-.06,0v0s0,0,0-.05-.13,0-.14,0,0,0-.05,0,.05,0,.08-.05l.09,0c.11-.05.08-.09.07-.19s-.06-.09-.1-.12,0,0,0,0-.09-.09-.12-.13,0-.11-.1-.12l0,0-.06-.07s-.1,0-.11-.08-.16-.23-.26-.19l0-.06h0l0,0s0,0,0,0-.08,0-.09,0,0,0-.06-.11,0,0,0,.08,0,.08,0,0,0-.1,0-.1,0,0-.06-.05h0s0-.08-.06-.15a.44.44,0,0,1,0-.15,1.15,1.15,0,0,0-.19-.46s0,0,0,0l0-.05h-.05l0,0s-.09,0-.06,0-.06-.07-.1-.07,0,0-.06,0a.18.18,0,0,1,0-.09.62.62,0,0,1,0-.23.43.43,0,0,0,0-.12s0-.09,0-.11a1,1,0,0,1,0-.23l0,.06,0,0c.06.08,0,0,0-.06a1.8,1.8,0,0,1-.08-.21s-.11-.13-.12-.14a.35.35,0,0,0-.13-.08.27.27,0,0,1-.07-.08v0c-.07,0-.07-.18-.07-.26s0-.09.08-.06-.06-.05-.09-.08h0c-.1-.08-.12-.19-.18-.3s-.15-.28-.22-.42,0-.06,0-.09v-.07s0-.05,0-.08a.2.2,0,0,0,0-.08.33.33,0,0,1-.06-.1h0s0,0,0,0,0,0,0,0l0,0c0-.06-.07-.09-.11-.13a1.13,1.13,0,0,1-.1-.13s0-.09-.07-.12,0-.08,0-.1-.13-.11,0-.21,0,0,0,0v0c0,.05,0,.12,0,.19s0,0,0,0,.06.09.1.13,0,.13,0,.18,0,0,0,0,.1.11.12.13a.83.83,0,0,0,.17.15h0c.06,0,0-.08.06-.16s0-.12.06-.19a1.39,1.39,0,0,1,.06-.19c0-.1-.06-.28-.1-.38a1.47,1.47,0,0,0-.08-.25.47.47,0,0,1-.19.06s0,0-.08,0h0s0,0,0,0h0s0,0,0,0v0s0,0,0,0h0s0,0,0,0h0l-.06,0h0a.13.13,0,0,0,.08,0c-.12.07-.12,0-.21,0s0,0,0,0,0,0,0,0h0v0h0s0,0,0,0h0s0,0,0,0v0h0v0h0s0,0,.07.05h0l0,0s-.07-.09-.1-.08a.16.16,0,0,1-.12,0s-.08-.06-.13,0a.07.07,0,0,1,0,0,.25.25,0,0,0-.11,0h-.06l.13-.07s-.13.07-.18,0,0,0,0,0l0,0a.06.06,0,0,1,0,.08h0s0,0,0,0,0,0,0,0,0,0,0,0,0,0,0,0l0,0a.62.62,0,0,1-.2.12c-.08,0-.14-.07-.22-.08l-.16,0s0,0,0,0,0,0-.06,0a.3.3,0,0,0-.08,0,1.62,1.62,0,0,0-.35-.09c-.1,0-.18,0-.27,0s0-.13-.07-.14-.29,0-.29,0a1.77,1.77,0,0,0-.2,0v0s-.07,0-.06-.1,0,0,0,0,0-.06-.09-.11a.84.84,0,0,0-.2-.08h-.14s0,0-.07,0-.1,0-.15,0l-.16.1a.28.28,0,0,0-.12.23c0,.09.07.15.06.24s-.31.35-.45.19a.82.82,0,0,0-.49-.24c-.15,0-.3,0-.4-.14a1,1,0,0,1-.07-.24c0-.07-.18-.05-.24-.07s-.12-.1-.23-.1-.08,0-.13,0a.93.93,0,0,0-.13,0c-.14,0-.19-.07-.31-.12l0,0c-.05,0-.09,0-.13-.06l0,0s-.08,0-.09,0h0c-.08,0,0-.09-.08-.12s0,.08-.09.05,0,0,0-.06,0,0-.09,0a.19.19,0,0,1-.12-.16s0-.07.08-.1l.1-.08s.08-.06.08-.09a.29.29,0,0,1,.07-.12.07.07,0,0,1,0-.1s0,0,0,0-.14-.06-.16-.14,0-.11,0-.13.06,0,.08-.05a.17.17,0,0,1,.06-.1s0,0,0-.07,0,0,0,0-.15.16-.19.07h0c.09,0,0-.08,0-.11s0,0,0,0h0a.15.15,0,0,0-.13,0c.07,0,0,0,0,0s0-.05,0-.05a.58.58,0,0,0-.19,0,.39.39,0,0,1-.21.11h0l-.07,0s-.11,0-.07,0-.12,0-.18,0-.08,0-.09,0a.19.19,0,0,1-.09,0s0,0-.06,0,0,0,0,.06-.11,0-.15,0-.2.12-.17,0a.66.66,0,0,0-.28,0s-.1,0-.13,0a.12.12,0,0,1-.13,0s0,0,0,0,0,0-.06,0-.06,0-.12,0,0,0-.05,0-.25,0-.37.06a.72.72,0,0,0-.24.14s0,.12-.1.1,0-.05-.09,0-.09,0-.1,0-.06,0-.08,0,0,.06-.06.09l-.11.07a.42.42,0,0,1-.12,0h-.1c-.05,0-.09,0-.13,0l0,0c-.06,0-.06-.08-.06-.12a.14.14,0,0,1-.14.09l-.09,0s0,0,0,0-.16,0-.27,0a.31.31,0,0,1-.12-.14s0-.08,0-.08a.47.47,0,0,0-.15.06,1.51,1.51,0,0,0-.1.3.83.83,0,0,1-.2.34.94.94,0,0,1-.28.15.64.64,0,0,0-.2.11,1,1,0,0,0-.18.24c0,.06,0,.12-.06.18a.59.59,0,0,0-.1.17s0,.15,0,.21,0,0,0,.07l0,.06c0,.13-.11.3-.19.4a1.3,1.3,0,0,1-.23.18c-.07.05-.09.11-.16.15a.94.94,0,0,1-.15.06.78.78,0,0,0-.22,0s-.07.12-.1.17a.51.51,0,0,1-.14.26c-.07.06-.17.07-.21.15a1.29,1.29,0,0,0-.07.21,1.42,1.42,0,0,0,0,.2c0,.08-.09.12-.14.18a1.19,1.19,0,0,0-.19.2s.05-.06.07-.08-.09.21-.13.27,0,.07,0,.1,0,.1,0,.13,0,0-.07,0a.69.69,0,0,0-.09.44.28.28,0,0,1,0-.12s0,.06,0,.07a.23.23,0,0,0,.06.12s0,0,0-.06,0,0,0,0h0s.08.14.06.16,0,.06,0,.08h0s0,0,0,0-.06.09-.06.14l0,0v0l0,0s0,.06-.07.05,0,0,0,0a.84.84,0,0,1,.06.14.77.77,0,0,1,0,.52,1.11,1.11,0,0,0-.08.36.44.44,0,0,1-.29.33l0,0v0c.1,0,.2.19.2.26s0-.06,0-.08l0,0s0,0,.08,0,0,0,0,0h0l-.07,0s0,0,0,0l0,0s0,0,0,.05,0,0,.06-.07v.06a0,0,0,0,1,0,0s0,.09,0,0,0,.07,0,.11h.06v0h0s.14,0,.2,0a.27.27,0,0,0,.09,0s-.3,0-.27.07h0a.14.14,0,0,0-.09,0l0,0h0s-.07,0,0-.07l0,0c-.08.06,0,.13,0,.21h0s0,0,0,0h0c-.05,0,0,0,0,0s0,0,0,0v0h0s.11,0,.12,0,0,0,.09,0,0-.06.1-.06,0,.07-.11.07h-.22l0,0c-.06,0-.08,0,0,.1s.07.06.09,0v0l.07,0s0,0-.06.06,0,0,0,.05,0,0,.08,0,0,0,.09,0v0s-.07,0-.07.06l0,0s0,0,0,0l0,0s0,0,0,0a.67.67,0,0,1,.12-.06s.05,0,.07,0h0s0,.05,0,.05,0,0,0-.05-.13,0-.13.08a0,0,0,0,1,0,0,0,0,0,0,0,0,0h0a.06.06,0,0,0,0,0s0,0,0,0,0,0,0,0v0h0v0h0s0,0,0,0,0,0,0,0,0,0,0,0l0,0h0s0,0,0,0l0,0s0,0,0,0h0s0,0,0,0l0,0h0s0,0,0,0,0,0,0,0h0s0,0,0,0h0s0,0,0,0h0v0s0,0,0,0v0l0,0v0l0,0s-.06.1,0,.09v0c0,.11,0,0,.06,0v0s0,0,0,0l0,0h0s0,.05,0,.06v-.06h0v0s0,0,0,0l0,0h0s0,0,0,.06h0a.09.09,0,0,0,0,.05l0,0s0,0,0,0a0,0,0,0,0,0,0l.06-.08s0,.06,0,.09,0,0,0,0,0,0,0,.08h.06s0,0,0,0,0,0,0,0l0,0s0,0,0,0,.07.1.09,0,0,.09,0,0h0l0,0s0,.06,0,.08l0,0s0,0,0,0,0,0,0,0,0,0,0,0l0,0h0a0,0,0,0,0,0,0l0,0v0h0s-.06,0,0,.07,0,0,0,0l0,0h0c-.06,0-.09,0-.07.06s0,0,0,0h0s0,0,.06,0l0,0h0a.07.07,0,0,0-.07,0l0,0-.07,0s0,.06,0,.1,0,0,0,0a.09.09,0,0,0,0,0s0,0,0,.05h0s0,0,.06,0,.07,0,.09,0l0,.05h0c0,.05.06,0,.09,0s-.14,0-.05.07h0c.09,0,.19.09.27.11h0a.13.13,0,0,1,.06.07,1,1,0,0,0,.18.09s0,0,0,0h0s.09,0,.12.05l0,0,0,0h0a.61.61,0,0,1,.22.2c.07,0,.12.1.18.13a2.6,2.6,0,0,0,.34.16c.09,0,.15,0,.24-.05l.42-.15h.16l-.07,0h0a0,0,0,0,1,0,0h0s0,0,0,0h.09s0,0,0,0h0a1.43,1.43,0,0,0,.29,0h0a.39.39,0,0,0-.16,0h-.07l0,0h0v0h0l0,0,0,0h0a.74.74,0,0,1,.15,0s0,0,0,0h0l0,0s0,0,0,0,0,0,0,0h-.08a.06.06,0,0,0,.08,0s.09,0,.13,0l0,0h0c0-.06,0,0,0,0s0,.05,0,.05,0,0,.07,0-.09,0-.12,0a1.46,1.46,0,0,1,.3.07c.06,0,0,0,.11,0a1.45,1.45,0,0,1,.25-.11s.1,0,.14,0l.17-.09c.08,0,.17,0,.25,0s0-.05,0-.07l.09,0A2.79,2.79,0,0,1,113,142a.05.05,0,0,1,0-.05s.07,0,.11,0L113,142h0s.16,0,.22,0a.28.28,0,0,1,.15.06l.1.09s0,0,.09,0l0,0s0,.11,0,0c0,.06,0,0,0,0s0,0-.07,0,0,.06,0,.06,0,0,0,0l.06,0s0,0,0,.05h0s0,.07,0,0h0a.16.16,0,0,0,0,.09h0l0,0s0,.06.06.08h0s0,0,0,0l0,0h0l0,0v0h0s0,0,0,0h0s0,0,0,0h0v0s0,0,0,0,0,0,0,0,.11.05.06,0,.06.06,0,0v0s0,0,0-.06,0,.1,0,.08a.34.34,0,0,1,0-.14h0a.43.43,0,0,0,0,.12c.05,0,.06,0,0-.05a0,0,0,0,0,0,0s0,0,0,0a0,0,0,0,0,0,0s0,0,0,0l0,0s0,.05,0,.06,0,0,0,0,0,0,0,0,0,0,0-.08h0s0,.07.08.07l0,0s.08,0,.08,0,0,.07.06.06h0s.16,0,.18,0a.16.16,0,0,0,0-.12s0,.07.08,0,0,0,0,0h0l0,0a.39.39,0,0,0,0,.06s0,0,0,0h0s0,0,0-.06a.11.11,0,0,0,0,0h0v0l0,0a0,0,0,0,1,0,0,.13.13,0,0,0,0,.12s0,0,.07.05,0,0,0,0,0,0,0,0a0,0,0,0,0,0,0l0,0a0,0,0,0,0,0,0h0c0,.05,0,0,.07,0s-.06.07,0,.05h0s0,0,0,0l0,0c0,.05,0,.08.08.06l0,0s.06.06.08.08,0,.23,0,.33a.25.25,0,0,1,0,.09s-.07.08,0,.06-.09.06-.1.11.07.06.09,0l0,0,0,0c0-.05,0,0-.06,0s0,.1,0,.14v0h0s0,0,0,0,0,0,0,.07.11,0,.17.06l-.08,0,0,0s0,0-.07,0l0,0v0s0,0,0,0v-.05s0,.09,0,.13-.07.13-.06.17,0,0,0,.06a.13.13,0,0,0,0-.06h0s0,0,0,0a.21.21,0,0,0,0-.07s0,.11.07.11h0a.08.08,0,0,1,0,.07s0,0,0,0,.1.1.1,0,0,.06,0,.08,0-.06.08,0h0s0,0,0,0v0l0,0s-.07-.1-.09-.13a1.09,1.09,0,0,0,.1.19v0s0,0,0,0h0a.13.13,0,0,1,0,.06h0s0,0,0,0,0,0,0,0h0v0a.13.13,0,0,0,0,.05.44.44,0,0,0,.08.11h0l0,0v0s0,0,.08,0,0,0,0,0h0v0s0,0,0,0l0,0s0,0,0,0h0c.06.09.16.13.23.22l.14.16a.67.67,0,0,0,.14.15.33.33,0,0,1,.1.11s0,.05,0,0a.6.6,0,0,0,.08.08v0s0,0,0,0a.23.23,0,0,1,.05.15.3.3,0,0,0,.06.13h0v0h.08s0,0,0-.05.07,0,.11,0-.15.07-.25.08v0s.11.23.15.24.07.25.12.36.07.16,0,.2l0,0a.36.36,0,0,0-.07.1.05.05,0,0,1,0-.06c-.08,0,0,.09,0,.14a.18.18,0,0,1,0,.1,1.74,1.74,0,0,0,.15.26.6.6,0,0,1,0,.52s0,0,0,0,0,0,0,.07-.05,0-.07,0-.07.1-.11.16l-.07.07s0,.1,0,.15a.3.3,0,0,0,0,.09s0,.1,0,.14l-.05.12a1.31,1.31,0,0,1,0,.15c0,.06-.07.06-.08.1s0,.11,0,.12a.86.86,0,0,1,0,.16v0a.75.75,0,0,0,.07.49,2.43,2.43,0,0,0,.14.2l.09.18a4.66,4.66,0,0,0,.25.5c.06.08.09.16.14.23a.36.36,0,0,1,.11.27s0,0,0,.05a.08.08,0,0,0,0,0c0,.05,0,.1,0,.16h0s0,.11,0,.15,0,.06,0,.11.11.18.11.28a2.46,2.46,0,0,0,0,.28c0,.05,0,.07,0,.12s.07.05.05.12h0s.06.23.08.28.23.4.31.35.1.17.13.26a2.86,2.86,0,0,0,.15.41c.06.13.15.25.22.37s.06.19,0,.21,0,.08,0,.11-.07,0-.09,0h0s0,0,0,0,0,0,0,.08v0s0,0,.06.07l0,0c0,.05.07.12.12.17a.22.22,0,0,1,0,.1s0,0,0,.06a.1.1,0,0,0,0,.1s0-.07,0-.08.09,0,.1,0,0,.06,0,.06.08,0,.1,0,.13,0,0,.11,0,0,.09.06h.13l.08-.08s0,0,.05,0,.13,0,.08,0a.11.11,0,0,1,.12,0s.06,0,.09,0,.06,0,.11,0,0-.06.07-.06.15-.07.19-.05l0,0h0s0,0,.06,0v0a.35.35,0,0,0,.12,0c0-.07.19,0,.23,0s.16.06.19,0,0-.05,0-.05.1,0,.11,0,.07,0,.09,0,0,0,0,0,.12-.06.21-.06a.42.42,0,0,0,.19-.06,2.22,2.22,0,0,0,.27-.19c.08-.06.15-.14.23-.21s.13-.18.2-.25a.91.91,0,0,0,.23-.21,2.42,2.42,0,0,0,.25-.4h0a.93.93,0,0,1,.11-.19s.1-.09.11-.14a.08.08,0,0,0,.09,0h0s.15-.09.12-.14.09-.28.12-.39a2.2,2.2,0,0,0,0-.36s0,0,0,.06l-.06,0s0-.08,0-.05l.07-.06c0-.09.09-.12.15-.17h0l0,0v0c.17-.08.35-.13.52-.22s.19-.22.12-.26,0,0,0,0,0,0,0,0a.14.14,0,0,0,0-.09s0,0,0,0a1.47,1.47,0,0,0,.06-.27h0a.66.66,0,0,1,0-.24s0,0,0,0,0,0,0-.06,0,0,0,0h0s0,.06,0,.09,0-.13,0-.2a.5.5,0,0,1,0-.21s0,0,0,.05a.08.08,0,0,0,0-.07s0,0,0,0,0,0,0,0,0-.08-.05-.07,0,0,0,0,0,0-.07,0,0,0,0-.06,0,0,0-.06,0-.08,0-.09,0-.09,0-.08,0,0,.06,0,0,0,.07,0,.15-.14.2-.19h0l.07-.06h0l0,0,0,0s0,0,0,0,0,0,0-.06,0,0,0,0,0,0,0,0,.07-.08.12-.15h0s0-.07,0-.1,0,0,0,0a.31.31,0,0,1,.14-.12c.05,0,.21-.09.18-.13s0,0,0,0,.16,0,.16,0,.15,0,.12,0,.19-.09.2-.14h0c-.06,0,.06-.07.08-.14h0a.71.71,0,0,0,.15-.15s0-.12,0-.09a.06.06,0,0,1,.06,0v0h0l0,0c.06.05,0-.07,0-.1h0s0,0,0,0a.2.2,0,0,0,0-.07s0-.08,0,0h0v0c0-.05,0-.16,0-.21s0,0,0,0h0s0-.11,0-.1,0,0,0,0,0,0,0,0,0,0,0,0,0,0,0,0h0s0,0,0-.07l0,0s0-.09,0-.12,0-.13,0-.16a.1.1,0,0,0,.06-.09h0s0,0,0-.06h0l0,0a.07.07,0,0,1,0-.06s0,0,0,0,0,0,0,0v0s0,0,0,0v0h0s0,0,0,0v0s0-.09-.09,0,0,0,0-.05,0,0,0,0,0-.1,0-.09.05-.12,0-.09a.09.09,0,0,0,0-.07h0a.26.26,0,0,1-.07-.19h0a.32.32,0,0,1,0-.09s0-.06,0-.06,0,0,0,0l0,0a.4.4,0,0,0,0-.15s.12-.14,0-.14h0a.06.06,0,0,1,0,0l-.08-.08h0c-.14,0,0-.3,0-.36s0,0,0,0,0-.05,0-.05,0,0,0,0l0,0v0s0,0,0,0,0,0,0,0,0,0,0,0,0,0,0,0v0s.09-.16,0-.15l0,0h0v0l0,0s0,0,0,0,0-.07,0-.1,0,0,.06-.07,0,0,0,0,0-.08.08-.12,0-.1,0-.12.17,0,.12-.08,0,0,0,0,0-.08,0-.1l0,0a.43.43,0,0,0,0,0c0,.07,0,0,.06,0s.19-.16.18-.22,0,0,0,0,0-.06,0-.09v0l0,0s.08-.1.12-.11.11-.12.16-.18.2-.16.27-.25a1.65,1.65,0,0,1,.51-.35,2.4,2.4,0,0,0,.46-.44,3,3,0,0,0,.27-.35,1.67,1.67,0,0,0,.24-.35s0-.07,0-.11l.09-.17a1,1,0,0,0,.11-.2c0-.06.09-.1.12-.17a1,1,0,0,1,.07-.15,1.13,1.13,0,0,0,.1-.13s0-.12,0-.16,0-.12.06-.15S126.91,140.9,126.9,140.84Z"/><path class="cls-9" d="M131.75,151a.25.25,0,0,0-.06.14S131.79,150.94,131.75,151Z"/><path class="cls-11" d="M185.82,167s0,0,0-.05,0,0-.07,0a.24.24,0,0,1-.11-.09c0-.05-.09-.09-.1-.14a.56.56,0,0,0-.16-.24l-.1-.07a1.35,1.35,0,0,1-.38-.19h-.12s0,0,0,0a.28.28,0,0,0,0-.09.07.07,0,0,0,0-.06.49.49,0,0,1-.17-.15.46.46,0,0,0-.15-.09c-.05,0-.09,0-.13,0h0s0,0,0,0l0,0a.09.09,0,0,0,0-.1l-.11-.08,0,0h0a.17.17,0,0,0-.14,0s0,0-.05-.06a.39.39,0,0,1,.15,0,.76.76,0,0,0,.08-.11.08.08,0,0,0,0-.09s0-.07,0-.1a.39.39,0,0,1,0-.21.18.18,0,0,0,0-.1.6.6,0,0,0-.24-.32l0,0a.37.37,0,0,0-.17-.1l-.18-.06,0,0c0-.06-.08-.13-.14-.16a.06.06,0,0,1,0,0,.11.11,0,0,0,0-.08,1,1,0,0,0-.07-.15l-.07-.07-.08,0s0,0,0,0a.12.12,0,0,0,0-.13l-.11-.1a.08.08,0,0,1,0,0s0,0,0,0h0l0,0s0,0,0,0a.67.67,0,0,0-.15-.06s-.05,0-.06,0,0,0,0,0,0,0,0,0a.17.17,0,0,1-.21,0,.2.2,0,0,0-.12-.08l-.15,0s0,0,0-.05v0a.07.07,0,0,0,0-.09l-.06,0a.12.12,0,0,1-.06-.1.08.08,0,0,0,0,0,.06.06,0,0,0-.07,0l0,0a.08.08,0,0,1-.09.05h-.08s0,0,0,0,0,0,0,0l.09-.05s0,0,0-.06l0,0a.25.25,0,0,0-.12,0,.29.29,0,0,1-.16,0,.48.48,0,0,0-.17,0h0a.11.11,0,0,0-.11,0,.18.18,0,0,0-.1.09.13.13,0,0,1-.09.07l-.12,0a.1.1,0,0,0,0,.05h0s0,0,0,0l-.06-.11a.34.34,0,0,0-.31-.16h-.07a.14.14,0,0,1-.15,0,.3.3,0,0,1-.15-.21.83.83,0,0,1,0-.15.07.07,0,0,1,0,0,.26.26,0,0,1,.09-.15s0,0,0-.06a1.19,1.19,0,0,1,.09-.15.39.39,0,0,0,.07-.16s0,0,0,0l-.06-.05h0a.18.18,0,0,0-.11-.1l-.14-.07c-.05,0-.11,0-.17-.05l-.14,0-.07,0s0,0,0,0a.23.23,0,0,0,.14-.15.18.18,0,0,1,0-.1s0,0,0,0a.08.08,0,0,0,.09,0,.6.6,0,0,0,.06-.11.19.19,0,0,1,.09-.12l.09-.06a.08.08,0,0,0,0,0s0-.08,0-.09a.47.47,0,0,0-.2-.06.47.47,0,0,1-.17,0,.12.12,0,0,0-.13,0l-.06.07a.47.47,0,0,1-.19.18s-.09,0-.14,0a.11.11,0,0,0-.08,0H179a.13.13,0,0,1-.11-.08.24.24,0,0,0-.08-.09.16.16,0,0,1-.06-.13,1.29,1.29,0,0,0,0-.19.19.19,0,0,1,0-.08l0-.16a.45.45,0,0,1,0-.11,2.49,2.49,0,0,1,.16-.33l0,0a.21.21,0,0,0,.1-.14.51.51,0,0,1,.11-.22.21.21,0,0,1,.19-.09.4.4,0,0,0,.24,0,.5.5,0,0,1,.17,0,.19.19,0,0,1,.13.05.1.1,0,0,0,.1,0,.08.08,0,0,1,.08.06.15.15,0,0,0,.14.11h.11a.22.22,0,0,0,.05-.08.06.06,0,0,1,.07,0h.07a1,1,0,0,1,.24.09.27.27,0,0,1,.2.16.07.07,0,0,0,.07,0h.07a.07.07,0,0,1,.06,0l.06.17a.08.08,0,0,1,0,.08l0,0a.1.1,0,0,0,0,.1c0,.1,0,.2,0,.3a.74.74,0,0,0,0,.14.07.07,0,0,0,.11,0,.55.55,0,0,0,.15-.19.06.06,0,0,0,0,0V160s0-.09,0-.14v0a.86.86,0,0,1,.1-.41l.05-.05a.41.41,0,0,1,.26-.09h0a.17.17,0,0,0,.1,0l.08-.05.06,0a.24.24,0,0,0,.12,0,.32.32,0,0,1,.19,0,.07.07,0,0,0,.07,0s0,0,.05,0l.06,0s0,0,0,0a.08.08,0,0,1,0-.08.14.14,0,0,0,.05-.13s0,0,0-.05a1,1,0,0,1,.07-.15h0a.1.1,0,0,1,0,.09s0,0,0,0h0l.12-.09,0-.06s0,0,0,0,0,0,0,0a.14.14,0,0,0,.09,0,.34.34,0,0,0,.15-.14c0-.06.07-.06.12,0l.11,0h.06l0,0s0,0,0,0h0c.09.05.2,0,.3.07h.05s0,0,0-.07,0-.08,0-.1l.08-.1a.26.26,0,0,1,.19-.09.25.25,0,0,0,.12,0h.09a.83.83,0,0,0,.22,0s0,0,.06,0a0,0,0,0,1,0,0l.18,0h0a0,0,0,0,1,0,0h-.07a.21.21,0,0,0-.14.07.11.11,0,0,0,0,.06.17.17,0,0,0,0,.1l0,0a.57.57,0,0,0,.22-.07.09.09,0,0,1,.11,0h.38c0-.06.08,0,.13,0h.09s0,0,0,0,0-.09,0-.13v0s0,0,0,0a.82.82,0,0,0-.2.12,0,0,0,0,1-.06,0l0,0h0l0,0,0,0a.06.06,0,0,1,0-.08.11.11,0,0,1-.06-.14.33.33,0,0,1,.07-.16s0,0,0-.06h0a.32.32,0,0,0,.14,0,.06.06,0,0,0,0-.07.19.19,0,0,0,0-.07.17.17,0,0,0-.14-.09,1.35,1.35,0,0,0-.49,0h0l-.07,0h-.09l-.05,0h0l.05,0h.09s0-.05.07,0h0a.09.09,0,0,1,.06-.06.54.54,0,0,1,.22,0c.05,0,.1,0,.13,0l0,0,.13-.05s.08,0,.12,0a4.54,4.54,0,0,1,.45.21c.06,0,.14,0,.2.06h.11a.34.34,0,0,0,.14-.05.18.18,0,0,1,.12,0l.09,0a.33.33,0,0,0,.24,0,.08.08,0,0,0,.07-.09.08.08,0,0,1,0-.08l0-.05a.11.11,0,0,0,0,0,.13.13,0,0,0-.09-.12h0a.43.43,0,0,0,0-.05.07.07,0,0,0,0-.07l-.05,0h.06a0,0,0,0,0,0-.06s0-.06-.05-.06,0,0,0,0-.08-.1-.12-.15,0,0,0,0a.28.28,0,0,0-.05-.17l0-.08a0,0,0,0,1,0-.06l.08,0a.06.06,0,0,0,0-.06s0-.09,0-.13a0,0,0,0,0,0,0s0-.06,0-.09,0,0,0-.06a.29.29,0,0,1,0-.09.4.4,0,0,0,0-.11,2,2,0,0,1,0-.24s0-.05,0-.07,0,0,0,0h0c-.06.05-.14.09-.2.15a.35.35,0,0,1-.21.12l-.07,0h-.09s-.05,0-.07-.05a.14.14,0,0,1,0-.06.11.11,0,0,0,0-.08.09.09,0,0,1,0-.1c0-.06.08-.09.07-.16s0,0,0,0a.49.49,0,0,1,.12-.13,0,0,0,0,0,0,0s-.06-.08-.11-.1a.12.12,0,0,1-.05,0s0,0,0-.05,0,0,0,0a.32.32,0,0,1,0-.14.19.19,0,0,0,0-.08c0-.05,0-.09-.1-.08l-.07,0a.88.88,0,0,1-.17-.12.12.12,0,0,0-.06-.06.14.14,0,0,0-.19,0,.12.12,0,0,0,0,.11.07.07,0,0,1,0,.08l-.11.08s0,.11,0,.15a.19.19,0,0,0,0,.07c0,.05,0,.06-.07.07H185a.67.67,0,0,1-.2.12.08.08,0,0,0,0,.09l0,.09a.15.15,0,0,1,0,.07c0,.06,0,.12,0,.19s-.08.12-.08.19l0,0-.08,0a.72.72,0,0,1-.29.06h-.15a.06.06,0,0,0-.06,0,.7.7,0,0,1-.08.2l-.06.13a.65.65,0,0,1,0,.13.08.08,0,0,1,0,.05l-.08.07h0s-.07,0-.1,0l-.06,0v-.06a.19.19,0,0,0,0-.08,1,1,0,0,1,0-.23.07.07,0,0,1,0-.06.57.57,0,0,0,.15-.22l0-.07.05-.07s0,0,0,0-.16-.1-.25-.13a.08.08,0,0,1-.05,0,.52.52,0,0,0-.11-.19.26.26,0,0,1-.09-.17.37.37,0,0,0-.09-.19l-.13-.15-.07,0a.36.36,0,0,1-.15,0h0a.27.27,0,0,0,.09-.12,1.05,1.05,0,0,1,0-.19.19.19,0,0,0,0-.07l0,0-.06,0a.05.05,0,0,1,0,0s0,0,0-.05l.06-.08a.64.64,0,0,1,.32-.29.2.2,0,0,0,.09-.06.53.53,0,0,1,.29-.12.3.3,0,0,0,.17-.1s0,0,0,0l.06,0a.1.1,0,0,0,.14-.06s0-.05,0-.08h0a.14.14,0,0,0,.2,0h.05l.06.06a.08.08,0,0,0,.09,0c.11,0,.22-.1.33-.15l0,0s0,0,0-.05l.15-.06,0,0h0c.06,0,.06,0,.05-.09v0s0,0,0,0,.1,0,.1.09,0,0,0,0a.32.32,0,0,0,.24.09.59.59,0,0,0,.19-.05.09.09,0,0,1,.07,0,.19.19,0,0,0,.11-.05.12.12,0,0,0,0-.08v-.07a.17.17,0,0,1,0-.1.41.41,0,0,0,.05-.09h0l.06,0c.07,0,.1,0,.12-.06a.1.1,0,0,1,0,0s0-.06,0-.09a.11.11,0,0,1,0-.12s0-.07,0-.08,0,0,0-.07a.15.15,0,0,1-.09-.06h0a.11.11,0,0,0-.12,0c0,.05-.07.08-.07.14l0,0-.08,0a.12.12,0,0,0-.12.06l-.07.06a.06.06,0,0,1-.06,0h0s0,0,0,0,0,0-.07,0a.14.14,0,0,0,0,.07.09.09,0,0,1,0,.05.06.06,0,0,1-.07,0s0,0,0,0a.36.36,0,0,1,0-.1.17.17,0,0,1,.11-.15.08.08,0,0,0,.05-.05.36.36,0,0,0,0-.23s0,0,0,0a.43.43,0,0,0-.13.09.15.15,0,0,1-.07.05h0s0,0,0,0a.51.51,0,0,0,.09-.16s0,0,0,0,.05,0,0-.07,0-.06-.07-.07a.2.2,0,0,1-.06-.07,0,0,0,0,1,0,0l.13-.06s0,0,0,0,.06,0,.06,0a.59.59,0,0,1,.12-.31s0,0,0-.05a1.49,1.49,0,0,0,0-.21s0,0,0,0l.15-.05a.14.14,0,0,0,.08-.07l0,0h0l.07.06a.08.08,0,0,0,.09,0l.07,0,.31-.14.06,0a.07.07,0,0,0,0-.09h0a.36.36,0,0,1-.15-.15l-.05-.05-.15,0h0s-.07.05-.11.05l-.1.08a.86.86,0,0,0-.14.13.27.27,0,0,0-.07.08.5.5,0,0,1-.13.19l0,0-.12,0s0,0-.05.06h0s0,0,0,0h-.08a.29.29,0,0,0-.2.16s0,.06-.07.07l0,0a.13.13,0,0,0-.07.1.17.17,0,0,0,0,.12s0,0,0,.06l0,0,.08.1h0s0,0,0,0h0l-.11.07s0,0,0,.06l0,0h0a.05.05,0,0,1,0,0l-.12.05a.15.15,0,0,1-.13,0,.11.11,0,0,0-.14.06l-.06.11s0,0,0,0v0a.25.25,0,0,0,0-.07s0,0,0-.07l.14-.09a0,0,0,0,0,0,0,.07.07,0,0,1,0-.11v0h0l.06,0a.09.09,0,0,0,.06,0h.13s0,0,0,0l0-.11s0,0,0,0,.07,0,.09-.07h0a.14.14,0,0,1-.12-.15,0,0,0,0,0,0,0s0,0,0,0l-.08,0a.23.23,0,0,1-.21.06h0a0,0,0,0,0,0,0,0,0,0,0,0,0,0,.46.46,0,0,1,.1.21h-.09s0,0-.08,0a.07.07,0,0,1-.06,0s0,0,0,0a.05.05,0,0,1,0,0,.09.09,0,0,1-.06,0,.12.12,0,0,1-.05-.05s-.07,0-.12,0h0l-.06,0a.15.15,0,0,1-.06-.1.18.18,0,0,0-.09-.13.07.07,0,0,1,0-.06.37.37,0,0,1,0-.18s0,0,0-.05a.09.09,0,0,0-.06-.1l-.24-.05a.1.1,0,0,0-.1,0,.11.11,0,0,0,0,.08.05.05,0,0,0,0,0h0l.11,0h.1s0,0,0,0,0,0,0,0a.4.4,0,0,0-.11,0,.33.33,0,0,1-.14,0h-.07a.1.1,0,0,0-.09,0,.51.51,0,0,0-.09.16l0,0a0,0,0,0,1-.05,0s0,0,0,0a.08.08,0,0,0,0-.08s0-.08,0-.12a.41.41,0,0,1,0-.11s0,0-.05,0H183a.56.56,0,0,1-.42-.27s0,0,0,0a.1.1,0,0,1,.1,0l.05,0c.07,0,.11,0,.12-.08a.17.17,0,0,0,0-.1c0-.05,0-.1-.08-.11a.19.19,0,0,1-.14-.1l-.13-.21a.23.23,0,0,1,0-.15.16.16,0,0,0-.07-.17.11.11,0,0,0-.14,0l-.07,0h-.05s0,0,0-.05a.29.29,0,0,0,.13-.16s0,0,0,0h-.06l-.19.07h0a0,0,0,0,1,0,0,.29.29,0,0,1,.05-.13.67.67,0,0,0,.1-.23.11.11,0,0,0,0,0l0,0a.12.12,0,0,0-.06.06.09.09,0,0,1-.07.06l-.12,0a.05.05,0,0,1-.05,0l0,0h-.06s0,0,0,0h0l0,0a0,0,0,0,0,0,0s-.07-.05-.12,0a.92.92,0,0,1-.28,0,.11.11,0,0,0-.08,0,.2.2,0,0,1-.17,0h0s0,0,0-.06,0,0-.06,0h-.19a.12.12,0,0,0-.12.06,0,0,0,0,1,0,0l-.05-.07a.17.17,0,0,1,0-.12v-.12s0-.06,0-.09a.61.61,0,0,0-.1-.14.4.4,0,0,1-.1-.24s0,0,0,0a.08.08,0,0,0-.05-.05l-.06,0a.24.24,0,0,1-.11-.09.37.37,0,0,0-.13-.17l-.06-.09,0-.12a.07.07,0,0,0-.08-.08h-.09s0,0,0,0,0-.1,0-.15l0,0s0,0,0,0,0,0,0,0,0,0-.06-.06l0,0s0,0,0-.06,0,0,0-.07h-.09l0,0a0,0,0,0,1-.06,0v0a0,0,0,0,1,0,0l.07,0h.09a.32.32,0,0,0,0-.14.1.1,0,0,0,0,0,.27.27,0,0,0-.13,0,.21.21,0,0,1-.17,0,.27.27,0,0,0-.08-.07.14.14,0,0,0-.15,0l0,0-.05,0c-.05,0-.1,0-.14,0a.26.26,0,0,0-.19,0,2.42,2.42,0,0,0-.36.1l-.05,0a.36.36,0,0,1-.36-.07l0,0a.09.09,0,0,0-.12,0l-.11.07a.1.1,0,0,0-.08.12s0,.08,0,.12a.36.36,0,0,1-.12.31s0,.06,0,.08l.07.08s0,0,0,0h0s0,0,0,0a.52.52,0,0,0-.06.13l0,0h.05v0h0a.21.21,0,0,1,.13.07,0,0,0,0,1,0,0h0a.31.31,0,0,1-.11-.09h0s0,.05,0,0h-.11a.08.08,0,0,1-.09,0l-.09-.09s0,0,0-.06l.06,0a.08.08,0,0,0,0-.11l-.14,0h-.09s-.06,0-.09,0l-.09,0a2.29,2.29,0,0,0-.25,0,0,0,0,0,0,0,.06s0,.1,0,.14,0,0,0,0h0a1.34,1.34,0,0,1-.11.14.06.06,0,0,0,0,.06c0,.07.05.14.13.15a.21.21,0,0,1,.16.1.09.09,0,0,0,.09.05l.2,0,0,0s0,0,0,0h0s-.06,0-.06,0,0,0,0,0a.38.38,0,0,0-.1.12.21.21,0,0,1-.2.06,0,0,0,0,1,0,0,.21.21,0,0,1,0-.06s0,0,0,0,0,0,0,0a.17.17,0,0,1-.18.05l0,0a0,0,0,0,1,0,0c0-.06,0-.08-.09-.07a.28.28,0,0,0-.2.1l0,0a3.21,3.21,0,0,0-.33.12.16.16,0,0,0-.12.16.25.25,0,0,0,0,.08.1.1,0,0,1,0,.08.15.15,0,0,0-.1.16s0,.08,0,.12a.07.07,0,0,0,0,.06l.06,0,.14,0h0v0s0,0,0,0l0,0h0l0,.08a.18.18,0,0,1-.09.08.07.07,0,0,0,0,.07.06.06,0,0,1,0,.06l0,0a0,0,0,0,0,0,0s.09.06.14,0h0c0,.06.08.1.07.18s0,0,0,0h0s0,0,.09,0l0,0h.07s0,0,0,0a.34.34,0,0,0-.15.09.67.67,0,0,1-.35.19l-.14,0a1.81,1.81,0,0,0-.23,0,.29.29,0,0,0-.13.05s-.05,0-.07,0a.16.16,0,0,0-.15,0l-.14,0a.28.28,0,0,1-.22,0l-.09,0a.21.21,0,0,0-.15,0v0l0,0H174a.29.29,0,0,1,.1,0s.05,0,.07,0a.18.18,0,0,1,.16,0,.2.2,0,0,0,.19-.05h0s0,.05,0,.08,0,0,0,0l0,0a.66.66,0,0,1,.15,0s0,0,.06,0h.11c.06,0,.12,0,.16-.05l.14,0,0,0s0,0,0,0h.12a.13.13,0,0,0,.11-.05l.05,0a1.26,1.26,0,0,1,.28,0,.23.23,0,0,0,.18,0s.05,0,.08,0h.07a.08.08,0,0,0,.06-.08.43.43,0,0,1,0,0,.07.07,0,0,1,0-.06.17.17,0,0,1,.14,0,.08.08,0,0,0,.08,0,.17.17,0,0,0,.12-.07.07.07,0,0,1,.08,0h.07a.49.49,0,0,1,.31-.09.05.05,0,0,1,.06.07l0,.05h0a.19.19,0,0,0-.2-.06l0,0a.66.66,0,0,1-.22.15.05.05,0,0,0,0,.08s0,0,0,0l-.1,0a0,0,0,0,0,0,0s0,0,0,0h.34a.25.25,0,0,1,.17,0h0a.19.19,0,0,0,.08,0s0,0,0,0h0s0,0,0-.07a.19.19,0,0,1,0-.07s0-.06.06-.08,0,0,0,0,0,.07,0,.07l.08,0h0s0,0,0,0a.17.17,0,0,0,.05.18.17.17,0,0,1,.06.11v.05a.05.05,0,0,0,0,.06l.06,0a.2.2,0,0,1,.12.1l0,0h0l0,0a.13.13,0,0,0,.12.09h0s0,0,0,0a.07.07,0,0,0,0,.1s0,0,0,.07a.06.06,0,0,1,0,.07.2.2,0,0,0,0,.07.29.29,0,0,0,0,.16s0,0,.07,0a0,0,0,0,0,0,0,.09.09,0,0,1,0,0v0s0,0,0,0,0,0,0,.07a.16.16,0,0,0,0,.1v0a0,0,0,0,1,0,0l0,0a.08.08,0,0,0-.1,0,.41.41,0,0,0-.05.09s0,.07,0,.11h0a.08.08,0,0,1,0,.1.41.41,0,0,0-.07.15v0h0l.1-.09h0s.05,0,.08,0h0v0a.7.7,0,0,0,.19-.15h0v0l0,0-.08.09s0,.05,0,.08h0v.06h0s0,0,0-.06h0l-.05,0-.07,0h-.09a.37.37,0,0,1-.07.14s0,0,0,.06h0l0,0v0h0l0,0a.1.1,0,0,1,0,.09s0,0,0,.06l0,0c0,.05,0,.1,0,.14l0,0s0,0,0,0a.38.38,0,0,0,.11-.14h0v.07h0v0h0v0h0s0,0-.05.06a.14.14,0,0,0,0,.07l0,0s0,0,0,0-.08.05-.09.1,0,0,0,0,0,0,0,0,0,.07,0,.07l0,0a.06.06,0,0,0,.05.08H178s0,0,0,0l-.06,0a.12.12,0,0,0-.08.09v0h0l.05.12a0,0,0,0,1,0,.06l0,0h0s0,0,0,.05a.09.09,0,0,1,0,.08,0,0,0,0,0,0,0v.11a.24.24,0,0,1,.06.09.18.18,0,0,0,.06.09l.06.06s0,0,0,0a.14.14,0,0,0,0,.1l0,0h0v0l0,0a.07.07,0,0,1,0,.06.24.24,0,0,0,0,.12.1.1,0,0,1,0,.09l0,0h0a.38.38,0,0,1-.12-.1h0l0,0a.05.05,0,0,0,.07,0,.48.48,0,0,0,0-.2.08.08,0,0,1,0-.07v-.09a.15.15,0,0,0-.07-.16.22.22,0,0,1-.09-.1l-.05-.08,0,0s-.05,0-.05,0a.22.22,0,0,1,0,.11v.05a.25.25,0,0,1,0,.11c0,.13.09.24.12.36l0,.05h0a.1.1,0,0,0-.11.07,1.43,1.43,0,0,0-.08.22.57.57,0,0,1-.14.25,2.33,2.33,0,0,0-.19.23.76.76,0,0,1-.19.21.41.41,0,0,0-.14.2.47.47,0,0,1-.16.29.09.09,0,0,0,0,.08.23.23,0,0,1,0,.18.32.32,0,0,0,0,.09.07.07,0,0,0,0,0,.92.92,0,0,0,0,.16s0,0,0,0,0,0,0,0l0,0,0,0c0,.06,0,.11,0,.15a.13.13,0,0,0,0,.06c0,.07,0,.14,0,.21a.16.16,0,0,1,0,.1s0,.07,0,.08a.63.63,0,0,1,.21.22.23.23,0,0,1,.05.21,1.38,1.38,0,0,0,0,.2,1.82,1.82,0,0,1,0,.33.15.15,0,0,0,0,.11.47.47,0,0,1,.06.2.08.08,0,0,1,0,.09,0,0,0,0,1-.06,0h0s0,0,0,0a.29.29,0,0,0,.07.16.8.8,0,0,1,.13.19.14.14,0,0,1,0,.09l0,.08a.09.09,0,0,0,0,.1,1,1,0,0,1,.14.34.07.07,0,0,0,.06,0,.11.11,0,0,0,.06-.07.27.27,0,0,0,0-.12.71.71,0,0,1,0-.21.27.27,0,0,1,0-.09s0-.09,0-.14,0-.1,0-.15a1.07,1.07,0,0,0,0-.25A2,2,0,0,0,177,158a.11.11,0,0,1,0-.05.68.68,0,0,1,.09-.25s0,0,0,0l.08.07a.12.12,0,0,1,0,.1,1.81,1.81,0,0,0,0,.23,1.36,1.36,0,0,0,.07.35.14.14,0,0,1,0,.07.28.28,0,0,0,0,.15l.06.09a.11.11,0,0,1,0,0l0,0a.05.05,0,0,0,0,.08l.08.1a.11.11,0,0,1,0,.11.19.19,0,0,0,0,.07.89.89,0,0,1,.1.56.08.08,0,0,1,0,.05l0,.05a.15.15,0,0,0-.05.16.15.15,0,0,0,.07.14.3.3,0,0,1,.09.13.19.19,0,0,0,.09.12l.07,0,.05.05a.71.71,0,0,0,.19.23.43.43,0,0,1,.12.11l.13.11a.44.44,0,0,0,.38.12.13.13,0,0,1,.13.07,2.11,2.11,0,0,1,.18.33.25.25,0,0,0,.11.12,1.22,1.22,0,0,1,.19.12.55.55,0,0,0,.23.14s0,0,0,0a.38.38,0,0,0,.05.15l.06.17a.12.12,0,0,1,0,.1c0,.05,0,.09,0,.12a.1.1,0,0,0,.05,0s0,0,0,0a.17.17,0,0,1,.05.14.14.14,0,0,0,.09.13h0a.12.12,0,0,1,.12.08,1.25,1.25,0,0,0,.08.12c0,.05,0,.05.11,0a0,0,0,0,0,0,0s0,0,0-.05a.91.91,0,0,0,.14-.07s0,0,0,0a.14.14,0,0,1,0,.15.24.24,0,0,0,0,.12s0,.11,0,.16a.11.11,0,0,1,0,.05,1.8,1.8,0,0,1-.08.21.13.13,0,0,0,0,.12.08.08,0,0,1,0,.05.4.4,0,0,1-.17.09.19.19,0,0,0-.17.09.15.15,0,0,1-.09.06h-.1l0,0a.87.87,0,0,1-.16.2s0,0,0,0a1,1,0,0,0-.06.16.15.15,0,0,0,.06.13h0l0,0v0a.09.09,0,0,1-.06.06l-.12,0a.13.13,0,0,0-.1.13s0,.06,0,.09l0,0a.06.06,0,0,0,0,.08l.08.1a.17.17,0,0,1,.06.12.27.27,0,0,0,0,.12.08.08,0,0,1,0,.07c0,.07,0,.15,0,.23a.93.93,0,0,0,0,.29c0,.11.05.21.07.32s0,0,0,.05,0,.09,0,.14a3.87,3.87,0,0,0,.24.37l.07.05a.58.58,0,0,1,.14.17l.14.25a.08.08,0,0,1,0,.07.31.31,0,0,1,0,.08.26.26,0,0,1-.05.17.14.14,0,0,0,0,.07.65.65,0,0,1-.11.33l0,.05a2.29,2.29,0,0,1-.15.51.67.67,0,0,1-.06.12l-.09.16a.12.12,0,0,0,0,.1.2.2,0,0,1-.06.14.18.18,0,0,0-.05.15c0,.07,0,.14,0,.21a.38.38,0,0,1,0,.1.29.29,0,0,0,0,.09.13.13,0,0,1,0,.08.36.36,0,0,0-.07.1l-.22.35a.12.12,0,0,1-.05.05s-.06,0,0,.1a1.48,1.48,0,0,0,0,.21.17.17,0,0,1-.06.16.13.13,0,0,0,0,.09l0,.1a.13.13,0,0,0,0,.12.14.14,0,0,0,0,.07c-.06,0-.07,0-.1,0l0,0,0,.17a0,0,0,0,0,.05,0s.06,0,.07-.05a.36.36,0,0,1,0-.11.14.14,0,0,0,0-.11.12.12,0,0,0,.08,0s0,0,0,0a.09.09,0,0,1,0,0c0,.07-.06.14-.08.21a2,2,0,0,1-.1.21.07.07,0,0,0,0,.06.22.22,0,0,1-.07.19h0a0,0,0,0,1,0,0v-.07a.12.12,0,0,0-.13,0,.63.63,0,0,1-.11.12,0,0,0,0,0,0,0,0,0,0,0,0,0,0s0,0,0,0l.09,0s0,0,0,.06a.52.52,0,0,0-.06.13h0a.1.1,0,0,0-.09,0,.06.06,0,0,0-.05.05v.07a.43.43,0,0,1,0,.05.07.07,0,0,0,0,.06s0,0,0,0h0v0c0,.05,0,.05,0,.08l.06.08h0c0,.05,0,.05,0,.07h0a1,1,0,0,1-.05.16s0,0,0,.06,0,0,0,0a.37.37,0,0,1,.07-.12h0a.09.09,0,0,1,0,.07.09.09,0,0,0,0,.07s0,0,0,.06,0,0-.06,0l0,0h0s0,0,0,0,0,0,.05,0,0,.08.06.12a.06.06,0,0,0,0,.08l.08.11h0a0,0,0,0,1,0,0h0a0,0,0,0,1,0,0h0a.2.2,0,0,1-.13-.08h0s0,0,0,0a1.18,1.18,0,0,1,.14.22.16.16,0,0,0,.07.07s0,0,.06,0l0,0h0s0,0,0,0a0,0,0,0,0,0,0l0,0s.06,0,0,.08,0,0,0,0a.12.12,0,0,1,.05.11.1.1,0,0,0,.05,0,.15.15,0,0,1,.09,0s0,0,0,0a0,0,0,0,1,0,0s0,0,0,.06a.12.12,0,0,0,0,.05h.05l.06,0s0,0,.05,0h.1a.05.05,0,0,0,0,0h0s.05,0,.06,0a.7.7,0,0,0,.14,0v0s0,0-.06,0l-.18-.17,0,0a.91.91,0,0,0-.07-.14.11.11,0,0,1,0-.08.13.13,0,0,0-.09-.15l-.06,0h0s0,0,0,0-.08.06-.1.1,0,0,0,0h0a.64.64,0,0,1,0-.07.16.16,0,0,1,.14-.08h0a.06.06,0,0,1,.09,0h0s0,0,0,0a0,0,0,0,0,0,0,.61.61,0,0,1,0-.13.65.65,0,0,1,0-.14.14.14,0,0,1,.07-.12l.06,0a.15.15,0,0,0,.11-.11.13.13,0,0,1,.09-.1l.14-.09a.08.08,0,0,0,0-.07.07.07,0,0,0,0-.05s0-.09,0-.12a.18.18,0,0,1-.07-.05.41.41,0,0,0-.05-.09.12.12,0,0,1,0-.17l.08,0H180c0-.05.08-.08.08-.14v0a.17.17,0,0,1,.09-.11l.08,0h0l0,0s0,0,0,0h0s0,0,0,0h0s.08,0,.09,0v-.09a0,0,0,0,0,0,0h0a.08.08,0,0,1-.1-.09.41.41,0,0,0,0-.11s0,0,0,0,0,0,0,0a.27.27,0,0,1,.08.07.24.24,0,0,0,.13.07.14.14,0,0,0,.13-.07s0-.07,0-.1l.06-.11V171s0,0,.06,0a.63.63,0,0,0,.38.09.34.34,0,0,0,.1,0,.16.16,0,0,0,.15-.08.76.76,0,0,1,.09-.09l0-.05a.09.09,0,0,0,0-.09l0,0a0,0,0,0,1,0-.05l0,0a.11.11,0,0,0,0-.12s-.07-.08-.08-.12h0a.52.52,0,0,1,.21.13l0,0,.1,0a.22.22,0,0,0,.23,0s.06-.07.11-.09a.29.29,0,0,0,.12-.1l.1-.15h0a.07.07,0,0,1,.06-.08h0a.81.81,0,0,1,.09-.1h0s0,0,0,0v0a.06.06,0,0,0,.07,0,2.18,2.18,0,0,1,.28-.25.23.23,0,0,0,.11-.22s0,0,0,0a.28.28,0,0,1,.17-.23l.13-.06a.64.64,0,0,1,.23-.05.25.25,0,0,0,.12,0,.16.16,0,0,0,.09-.05h0a.17.17,0,0,0,.1,0l.1,0a.19.19,0,0,0,.18,0s.07,0,.11,0a0,0,0,0,0,0-.05.1.1,0,0,1,0-.07,1.07,1.07,0,0,1,.16-.14.22.22,0,0,0,.09-.13s0-.09.06-.11a.39.39,0,0,0,.12-.19c0-.09.07-.18.1-.27l.06-.18A.07.07,0,0,1,185,168a.3.3,0,0,0,.2-.12s0,0,0,0a.38.38,0,0,1,.13-.09l.18-.09a.44.44,0,0,0,.15-.12.57.57,0,0,0,.11-.22Zm4.74-12.24v0c0,.06-.12,0-.17.05l0,0A.25.25,0,0,1,190.56,154.78Zm-1.24,0v0Zm.11-.53s.08,0,.13,0a.28.28,0,0,1,.24.1,0,0,0,0,1,0,.05h-.12a.42.42,0,0,0-.2-.1s0,0-.06-.05a0,0,0,0,1,0,0Zm-.22.43h0Zm-.39-.92v0S188.8,153.73,188.82,153.72Zm-.2,0,.07,0a.13.13,0,0,1,0,.06.26.26,0,0,1,0,.07l0,0h0A.08.08,0,0,1,188.62,153.74Zm-.39-.43s0,0,0,0h0Zm-.86,1.11,0,0v0l-.14,0v0A.14.14,0,0,1,187.37,154.42Zm-.71.58h0s0,0,0,0Zm1.17-6.7h0a.92.92,0,0,1,.07.26,0,0,0,0,1,0,0h0s0,0-.06-.06a.36.36,0,0,1,0-.21S187.81,148.3,187.83,148.3Zm-1.53-.06h0a.12.12,0,0,1,.06.1h0a.16.16,0,0,1,.07.07h0v0h0a.12.12,0,0,1-.07-.07h0c-.08,0-.09,0-.1-.06S186.29,148.25,186.3,148.24Zm-.43-.36v0h0S185.84,147.87,185.87,147.88Zm-.19,6.64h0v0s0,0,0,0,0,0,0,0S185.67,154.52,185.68,154.52ZM185,156h.16l.27.07a.16.16,0,0,0,.15,0h.06v0a.12.12,0,0,1-.06.14.2.2,0,0,1-.25,0,1.25,1.25,0,0,0-.36-.15,0,0,0,0,1,0-.05Zm-.13.23,0,0-.33,0-.24,0a.47.47,0,0,1-.26,0l-.06-.08s0-.08,0-.08h0a.82.82,0,0,0,.38,0,.15.15,0,0,1,.13,0,.24.24,0,0,0,.15,0h.14S184.84,156.22,184.83,156.24Zm-.37-1.34a2.3,2.3,0,0,1,.49.32s0,0,0,.07a2,2,0,0,1,0,.24c0,.05,0,.07-.05.09a.06.06,0,0,1-.08,0,.56.56,0,0,1-.09-.17l0,0h0a.2.2,0,0,1,0,.08,1.34,1.34,0,0,0-.27.31l-.05,0a0,0,0,0,1-.06,0l0-.16s0-.09-.09-.08h-.08s0,0,0,0a0,0,0,0,1,0,0l.12-.08a.22.22,0,0,0,.1-.21.36.36,0,0,0,0-.11l-.1-.14a.64.64,0,0,1,0-.07h0l-.16.08a.16.16,0,0,1-.13,0,.14.14,0,0,0-.15,0,1.05,1.05,0,0,0-.3.43.45.45,0,0,1-.33.3.07.07,0,0,1-.09-.08.69.69,0,0,1,.2-.41c.08-.07.13-.16.2-.23a.2.2,0,0,0,0-.13s0,0,0,0a0,0,0,0,1,0,0c.29-.16.23-.15.54-.09a.21.21,0,0,1,.14.12h.17l0,0S184.45,154.89,184.46,154.9Zm.75-2.32h0s0,0,0-.06,0,0,0,0a0,0,0,0,1,0,0l-.05,0h0Zm-1,.86h0a.05.05,0,0,1,0,0,.12.12,0,0,1-.06.11h0a0,0,0,0,1,0,0A.11.11,0,0,1,184.18,153.44Zm-.11-.47v0l0,0Zm1.36-4.38h0l0,0a.14.14,0,0,1,0,.07s0,0-.05,0,0-.05,0-.08S185.41,148.6,185.43,148.59Zm-.12-.23v0h0v0Zm-1.22,3.2s0,0,0,0h0Zm-.61,1.41h0l.14.07s0,0,0,0h0a.27.27,0,0,1-.1-.11h0S183.46,153,183.48,153Zm-.1,1a1,1,0,0,0,.35,0c.11,0,.23,0,.33,0s.07,0,.1,0,0,0,.07.05a.21.21,0,0,1,.12.23.13.13,0,0,0,.07.14c.06,0,.06.08,0,.14a2.1,2.1,0,0,0-.06.24,0,0,0,0,1-.08,0s0,0-.09-.06a.79.79,0,0,0-.22,0,.2.2,0,0,1-.18-.15l0,0s-.06,0,0-.07l.07,0s0,0,0,0,0,0,0,0h-.11a1.2,1.2,0,0,1-.38,0c-.08,0-.14,0-.17-.1s-.08-.06-.12-.08h0A.49.49,0,0,1,183.38,154Zm.42-2.13a0,0,0,0,1,0,0h0s0,0,0,0Zm1.19-3.78.11,0s0,0,0,0-.09.12-.14.17a.06.06,0,0,1-.11,0C184.82,148.14,184.86,148.07,185,148.05Zm-.52,1.25h0l0,0h0l0,0h0l-.08.05h0Zm.25-.88h0Zm-.83,2v0h0Zm-1.08,2.77s.05-.08.1-.09h0s0,.07,0,.1a0,0,0,0,1,0,0h-.07A0,0,0,0,1,182.81,153.17Zm.61-1.9,0,0h0Zm.22-.85s0,0,0,0,0,0,0,0,0,0,0,0Zm-.74,2a.24.24,0,0,1-.16.19h0a.33.33,0,0,1,.14-.22h0Zm.34-1.07h0s0,0,0,0h0S183.22,151.33,183.24,151.34Zm-.25.15s0,0,0,0a.14.14,0,0,1,.08.13.41.41,0,0,1,0,.19,1.78,1.78,0,0,0-.09.23.56.56,0,0,1,0,.1.08.08,0,0,1,0,.07s0,0,0-.06a.11.11,0,0,0,0-.07.11.11,0,0,1-.06-.11s0-.06,0-.08a.29.29,0,0,1,.07-.2l0-.11Zm-.42.26a.48.48,0,0,1-.11.09s0,0,0,0v0a.26.26,0,0,0,.09-.14c0-.07-.06-.08-.09-.12s0,0,0,0,0,0,0,0l.05,0,.09.05h0l0-.15a.22.22,0,0,1,.06-.2.11.11,0,0,1,.07,0s.05,0,.06.05,0,.08,0,.12h0v0h0c-.1,0-.12.1-.07.19s0,0,0,0l-.1,0h0a.34.34,0,0,1,0,.1A.15.15,0,0,1,182.57,151.75Zm-.13.75,0,0,0,0a1.37,1.37,0,0,1,0-.19l0,0h0l0,0h0l0,.05h0c0,.06,0,.12,0,.17A0,0,0,0,1,182.44,152.5Zm1.77-5.31h0s0,0,0,.05h0S184.19,147.21,184.21,147.19Zm-1,2.4a.07.07,0,0,1,.09,0s0,0,0,0,0,0,0,0a.35.35,0,0,1-.16.08h0l0,0v0h0A.25.25,0,0,1,183.21,149.59Zm.85-2.54s0,0,0,0h0v0Zm-1.21,3.15H183l.08,0h0v0c0-.23,0-.25.3-.31l0,0v0l0,0-.17.09-.11.12,0,0h0l-.09,0h0l-.11,0v0S182.84,150.19,182.85,150.2Zm1.38-4h0v0Zm-.34.46s0,0,0,0,0,0,0,0h0S183.87,146.68,183.89,146.68Zm-6.62.12h0Zm.28-.32v0l0,0h0s0,0,0,0h0v0Zm.16-.33h0v0h0Zm-.46,1.41a0,0,0,0,1,0,0,.38.38,0,0,1,0-.1.08.08,0,0,1,.07-.09h0s0,0,0,0v0l0,0h0a1.27,1.27,0,0,1,0,.2Zm.14-.16s0,0,0,0l0,0,0,0S177.41,147.41,177.39,147.4Zm4.28-4.72v0s0,0,0,0a.27.27,0,0,1,0-.08l0,0v0a.56.56,0,0,0,0,.12S181.69,142.69,181.67,142.68Zm.41,0h0v0Zm-1.44,4.4h0Zm-.35,2.28,0,0h0a0,0,0,0,0,0,0Zm2.4-6.66h0l-.26-.09h0l-.07,0h0l0,0h0a.05.05,0,0,1,.05,0h0l.08,0h0a.49.49,0,0,1,.29.08Zm-.58,7.77v0l0,0a.06.06,0,0,1,.07,0v0A.08.08,0,0,1,182.11,150.48Zm.28-.86a0,0,0,0,1,0,0v0a.11.11,0,0,1,.12,0v0A.08.08,0,0,1,182.39,149.62Zm.73-1.78h0v0Zm.87-2,0,0a0,0,0,0,1,0,0v0l0,0S184,145.8,184,145.81Zm-1.66-1.68h0Zm-.8,3v0h0v0Zm.67-1.77a.18.18,0,0,1-.22-.07s0-.05,0-.06a.4.4,0,0,0,.13,0,.32.32,0,0,1,.18-.06.15.15,0,0,0,.12-.07h0c.05,0,.07.06.12.07s.08,0,.07-.07a.47.47,0,0,0,0-.1.44.44,0,0,0-.16-.1l-.33-.14v0l0,0h.05l.4.12a1.59,1.59,0,0,0,.3.06l.28,0a.11.11,0,0,1,.07,0s0,0,0,0,0,0,0,0H183s0,0,0,.07,0,0,0,0l0,0a.26.26,0,0,0,.35.13h0s0,0,0,0a.14.14,0,0,1-.08.07l-.13,0-.06.05c-.06.08-.09.08-.14,0a.23.23,0,0,0-.21-.11s-.06,0-.07,0a.16.16,0,0,1-.2.09h-.14l0,0h0s0,0,0,0h0a.12.12,0,0,1,.1,0h0a.39.39,0,0,0,.08-.1.06.06,0,0,0,0-.1h-.16Zm.56.38h-.06v0s0,0,0,0v0h0s0,0,0,0Zm-.5.73,0,0a.17.17,0,0,1-.08-.17s0,0,0,0h.05A1,1,0,0,1,182.26,146.45Zm-.67,1.3h0l0,0Zm.13.94h0a.06.06,0,0,1,0,0h0v0S181.73,148.69,181.72,148.69Zm.51-1.13a.22.22,0,0,1-.16,0l-.24,0a.16.16,0,0,1-.14-.12.69.69,0,0,0-.05-.13h0a.47.47,0,0,0,.09.06.11.11,0,0,0,.08,0l.14-.07a.14.14,0,0,1,.16,0h0a.08.08,0,0,0,.09,0s0-.06,0-.08,0-.11,0-.17a0,0,0,0,1,0,0l0,0a.91.91,0,0,1,.1.29.14.14,0,0,0,.08.09.4.4,0,0,0,.35,0,.62.62,0,0,1,.33,0l.13,0h0s0,0,0,0h0l-.09.05-.14,0a1.57,1.57,0,0,0-.3.05,1.35,1.35,0,0,1-.35.06l-.05,0A.18.18,0,0,0,182.23,147.56Zm-.61,2.31v0S181.64,149.86,181.62,149.87Zm.43-1.08s0,0,0,0,0,0,0,0,0-.05.09-.05l.35-.07a.05.05,0,0,1,0,0,.25.25,0,0,0,.13.12.07.07,0,0,1,0,0h0l-.19,0h0l-.08,0a.29.29,0,0,0-.24,0A.11.11,0,0,1,182.05,148.79Zm-2,14.5h0a.09.09,0,0,1-.07-.12h0a.11.11,0,0,1,.08.1S180,163.28,180,163.29Zm2.8,1.47s-.06,0-.07,0,0,0,0,0,0-.1.09-.16,0,0,.05,0v0a.37.37,0,0,1,0,.09ZM178.4,179h0v0s0,0,0,0Zm3-8.32h0a.24.24,0,0,1-.14-.17s0,0,0,0h0c0,.07.09.13.09.21h0v0Zm-2.8,9.51h0S178.62,180.18,178.6,180.18Zm.05.31h-.05a0,0,0,0,1,0,0s0,0,0,0l0,0Zm-.06.33v0h0v0Zm.2-.16h0l-.05,0h0l.05,0h0S178.8,180.66,178.79,180.66Zm.33.26s0,0,0,0l0,0h-.07S179.08,180.93,179.12,180.92Zm-.24.13v0l.08.08h0l0,0s0,0,0,0v0s0,0,0,0h-.1s0,0,0-.05v0h0s0,0,0,0h0v0Zm5.57-15.14,0,0v0Zm-2.62,8.73,0,0h.05v0Zm4-7.68v0h0s0,0,0,0A0,0,0,0,1,185.88,167Zm.59,1.59a.06.06,0,0,1-.09,0s0,0,0-.07l.06,0s0,0,0,0a0,0,0,0,0,0,.05h0Zm.16.38h.06v0h0Zm-.14.62h0s0,0,0-.08a0,0,0,0,1,0,0v0a.17.17,0,0,1,0,.07Zm-.88,3.1,0,0h0Z"/><path class="cls-11" d="M162.47,115.74s0-.09,0-.13l-.06,0c-.27,0-.54.12-.81,0a.64.64,0,0,0-.58.14.25.25,0,0,1-.13,0,.09.09,0,0,1-.05,0s-.06-.09,0-.11.18-.13.27-.2a.29.29,0,0,0,.09-.37c0-.12-.11-.24-.17-.36s0-.16.1-.17a.16.16,0,0,1,.12,0,2.85,2.85,0,0,0,.53.62.48.48,0,0,0,.5.1l.26-.09c.24-.06.27-.1.22-.32s-.12-.39-.16-.59-.28-.29-.28-.53c0,0-.09-.09-.13-.14a1.56,1.56,0,0,0-.69-.43l-.31-.13A.51.51,0,0,1,161,113a3.42,3.42,0,0,1-.21-.43.15.15,0,0,1,0-.12.11.11,0,0,1,.11,0,.34.34,0,0,1,.1.16.64.64,0,0,0,.47.46,1.37,1.37,0,0,0,.45.13c.07,0,.15-.06.14-.12a.47.47,0,0,1,0-.33c-.07-.1,0-.2,0-.31a.2.2,0,0,0-.11-.23,4.51,4.51,0,0,1-.52-.17s-.07-.08-.1-.13h0a.9.9,0,0,1-.43,0s0,0,0,0a.07.07,0,0,1,0,0s.1,0,.13,0a1.83,1.83,0,0,1,.26.16h0l0,0,.18,0a.38.38,0,0,0,.43-.13,1.1,1.1,0,0,1,.43-.31.27.27,0,0,0,.11-.16,2.61,2.61,0,0,0,0-.28c0-.09-.08-.18-.17-.17a1.41,1.41,0,0,1-.54-.07s0,0,0-.05a.07.07,0,0,1,.09-.08c.24.05.45.06.6-.19,0,0,.12-.06.18-.08a.33.33,0,0,0,0-.56.51.51,0,0,1-.29-.27.31.31,0,0,0-.15-.12c-.05,0-.09,0-.09-.08a.11.11,0,0,1,.1-.09.27.27,0,0,0,.18,0,.25.25,0,0,0,.07-.25c0-.16-.06-.31-.1-.47a.35.35,0,0,0-.21-.25c-.17-.07-.09-.16,0-.26a.13.13,0,0,0-.08-.16c-.13,0-.27,0-.39-.06h-.11a.18.18,0,0,1-.19-.15.22.22,0,0,1,0-.22l.19.1h0v0l-.18-.1v0c.07-.14.14-.28.22-.42a.26.26,0,0,1,.24-.09l.07,0c.17.1.38.16.41.41a1.23,1.23,0,0,0,.26.54s.05,0,.05,0a.59.59,0,0,0,0-.19,1,1,0,0,1-.07-.73,1.06,1.06,0,0,0,0-.61.34.34,0,0,0-.26-.2,2.51,2.51,0,0,1-.27,0,.73.73,0,0,1-.19-.07.09.09,0,0,1,0,0s0-.09,0-.1c.24-.12.25-.16.09-.31a.74.74,0,0,0-.27-.19,1.09,1.09,0,0,1-.23-.14s0,0,0,0a.07.07,0,0,1,0,0c.21,0,.29-.08.29-.27a2.69,2.69,0,0,0,0-.75,2.55,2.55,0,0,1,.15-1.74,4.45,4.45,0,0,0,.19-.51.19.19,0,0,0,0-.19c-.08-.15-.08-.17.06-.24a.6.6,0,0,0,.32-.42.22.22,0,0,0-.14-.21h-.2l-.27,0s-.05,0,0,0a.14.14,0,0,1,0-.11.37.37,0,0,1,.32-.07.57.57,0,0,0,.49-.2l.15-.14a.17.17,0,0,0,0-.19l-.06-.12c0-.08,0-.15.07-.16a.43.43,0,0,0,.37-.26,1.14,1.14,0,0,1,.15-.23c.25-.34.22-.48-.14-.72l-.12-.07a1.31,1.31,0,0,0-1.12-.14,3.17,3.17,0,0,0-.6.32s0,.08-.05.12a1.47,1.47,0,0,0,0,.21c0,.09-.08.14-.19.15a.5.5,0,0,1-.27,0,.09.09,0,0,0-.15.07,1.62,1.62,0,0,1-.73,1,1.88,1.88,0,0,0-.51.42v0a1.4,1.4,0,0,0-.1.16l-.1.17,0,0,0,0,.09-.18a1.4,1.4,0,0,1,.1-.16s0,0,0,0,0-.13,0-.17a1.17,1.17,0,0,1,.38-.55.84.84,0,0,0,.34-.65,1.49,1.49,0,0,1,0-.21c.05-.56-.23-.6-.61-.44,0,0-.05,0-.06,0s-.07.07-.07.11,0,.23,0,.34a.34.34,0,0,1-.25.3l-.06,0a1.48,1.48,0,0,0-.71.19l0,0a.08.08,0,0,1,0-.07l.33-.24a.39.39,0,0,0,.14-.3c0-.08-.09-.19-.16-.19l-.48,0a2.17,2.17,0,0,0-1.49.6c-.07,0-.13.12-.2.18l-.34.23s-.07,0-.1-.06,0,0,0-.06a1.14,1.14,0,0,1,.19-.19c.19-.16.41-.29.59-.46a1.66,1.66,0,0,1,1.19-.45,2.35,2.35,0,0,0,.86-.2c.25-.1.49-.23.75-.33a1.48,1.48,0,0,0,.64-.6.3.3,0,0,0-.11-.41q-.28-.12-.57-.21a.85.85,0,0,0-.9.13.26.26,0,0,1-.12,0l-.06,0s0,0,0-.06a.88.88,0,0,0,.15-.12.33.33,0,0,0,0-.49c-.06-.06-.2-.1-.25,0a1.68,1.68,0,0,1-1.23.32,1,1,0,0,0-.4.08,4.23,4.23,0,0,0-.42.22,1.43,1.43,0,0,1-.63.24.59.59,0,0,0-.41.23.35.35,0,0,1-.17.09.09.09,0,0,1-.07,0s0,0,0,0a.64.64,0,0,1,.19-.18,3.39,3.39,0,0,0,.51-.2,4.83,4.83,0,0,1,.93-.42,2,2,0,0,1,.8-.17.83.83,0,0,0,.64-.34.13.13,0,0,0,0-.12.94.94,0,0,0-.75-.27c-.51,0-1,0-1.5,0a5.05,5.05,0,0,0-.68.08c-.26,0-.44.23-.69.28a1.29,1.29,0,0,0-.27.55l0,0h0v0l0,.12h0l0,0-.05,0v0a.55.55,0,0,1-.45,0,.07.07,0,0,0-.1.06v.06c0,.06.07.12.11.17s0,.09,0,.12a.23.23,0,0,1-.12.06,1.83,1.83,0,0,1-.6-.12.3.3,0,0,0-.36.11.59.59,0,0,1-.31.25.12.12,0,0,0-.09.16c0,.16.07.31.11.46a.26.26,0,0,1-.06.25,1.83,1.83,0,0,0-.13.24.15.15,0,0,1-.11.06,1.06,1.06,0,0,0-.47,0s-.12.11-.11.15a1.17,1.17,0,0,0,.05.2c.11.22.22.45.35.67a4.12,4.12,0,0,0,.48.81c.05,0,0,.13-.07.15s-.21.09-.29-.06a.35.35,0,0,0-.29-.16s0,0,0-.08.07-.23-.05-.27a.54.54,0,0,1-.33-.21c-.13-.18-.28-.35-.43-.52a.58.58,0,0,0-.36-.19c-.13,0-.25,0-.25.16s0,.09,0,.14a2.19,2.19,0,0,0,.16.8.54.54,0,0,1,0,.33c0,.12-.18.1-.29.12l-.06,0-.08.1c-.05,0-.11,0-.15-.06s.06-.23,0-.32a2.13,2.13,0,0,1-.25-.63.57.57,0,0,0-.11-.16s0,0-.05,0-.09,0-.1.07a.44.44,0,0,0,0,.34c0,.11.09.21.08.32a.8.8,0,0,1-.12.31l0,.06h0l-.12.16-.11.19a.06.06,0,0,1,0,0v.06s0,0,0-.06v0l.11-.19.12-.15h0a.31.31,0,0,1-.11-.22c0-.16,0-.32,0-.47a.83.83,0,0,0-.11-.46.23.23,0,0,0-.24-.09,1.75,1.75,0,0,0-.29.18,2.23,2.23,0,0,1-.58.33c-.29.14-.59.25-.88.37a.21.21,0,0,0-.13.27,1.06,1.06,0,0,0,.06.19s0,0,0,.06a.06.06,0,0,1-.06,0c-.08,0-.14-.13-.23-.15s-.2.07-.29.14a.35.35,0,0,0-.14.3,1.5,1.5,0,0,0,0,.2,1.37,1.37,0,0,1,.05.4,1.31,1.31,0,0,1-.17.36.65.65,0,0,0,0,.13.16.16,0,0,1-.22.1.49.49,0,0,0-.51,0,.94.94,0,0,0-.47.47.84.84,0,0,1-.48.46.71.71,0,0,1-.08.15,1.64,1.64,0,0,0-.31.73.23.23,0,0,0,.22.32h.52l0,0v0h0l.06.1a.14.14,0,0,1,0,.19.36.36,0,0,0-.11.3.6.6,0,0,1-.05.26c-.08.19-.18.37-.27.55a.22.22,0,0,1-.22.13,1.8,1.8,0,0,0-.86.15.61.61,0,0,0-.28.19,1,1,0,0,1-.37.29c-.29.14-.56.3-.85.43a.81.81,0,0,0-.41.59.32.32,0,0,0,.14.41c.21.12.32.36.54.47a.05.05,0,0,1,0,0l0-.07s0,.06,0,.07l0,0h0a3.85,3.85,0,0,0,.27.3.34.34,0,0,0,.38.08c.1,0,.18-.15.3-.14a.66.66,0,0,0,.39-.11.17.17,0,0,1,.22.09s0,.11,0,.12a.29.29,0,0,1-.19.06.92.92,0,0,0-.76.24.5.5,0,0,1-.31.12.62.62,0,0,0-.36.18.36.36,0,0,0,0,.54,1.57,1.57,0,0,0,.55.27c.09,0,.09,0,0,.12a1.62,1.62,0,0,0-.18.2.21.21,0,0,0,0,.19,1.45,1.45,0,0,0,.72.5c.2.06.27,0,.33-.2s0-.13.18-.13a.38.38,0,0,1,.25.08s.1,0,.12,0c.23-.2.6-.08.8-.34a.07.07,0,0,1,.06,0,4.32,4.32,0,0,1,.87.17l.7.27a1.09,1.09,0,0,1,.23.14.24.24,0,0,1,.09.17.78.78,0,0,1,0,.34c-.06.22.05.34.21.46a.56.56,0,0,1,.16.21.27.27,0,0,1,0,.32s0,.09,0,.1h.21a.11.11,0,0,1,.11.13.65.65,0,0,1,0,.13.18.18,0,0,0,.09.28.14.14,0,0,1,.06.11c0,.06-.05.14,0,.19s.13.13.17.21.09.26.16.37a.44.44,0,0,1,0,.4.27.27,0,0,0,0,.11s.09,0,.12.06.11.18,0,.23a.38.38,0,0,0-.2.17s0,.09.05.12.22,0,.07.12-.1.28-.05.44l.13,0h0l0,0v0h0l-.09.15h0v0h0a1,1,0,0,1-.08.51c-.05.09,0,.23.12.29.29.18.5.13.65-.16,0-.06,0-.13.08-.19a.2.2,0,0,1,.22-.1.23.23,0,0,1,.11,0h0s.1,0,.12,0,0,.09-.07.13l-.12.36a.12.12,0,0,0,.08.15,1.2,1.2,0,0,1,.2,0,.16.16,0,0,1,.13.19,1.13,1.13,0,0,1,0,.18h0a.29.29,0,0,1,.35.17s0,0,0,.06-.05,0-.05,0l-.28-.25h0v0a1.56,1.56,0,0,1-.53,0l-.34,0a.23.23,0,0,0-.16.31l0,.06c0,.06.09.12.09.17s-.09.1-.14.15a.3.3,0,0,0-.11.23,1.68,1.68,0,0,0,.05.4.79.79,0,0,0,.51.51H149a1.08,1.08,0,0,0,.66-.31.26.26,0,0,0,0-.36.59.59,0,0,0-.17-.1.45.45,0,0,1-.24-.28h0l0,0,0,0v0a2.12,2.12,0,0,0,1,.05.09.09,0,0,1,.11.12,1.51,1.51,0,0,1-.11.22h0v0l0,.27a.23.23,0,0,0,.05.19c.06.11.06.12-.06.17s-.14.06-.13.14c0,.29-.07.47-.39.51a.93.93,0,0,0-.29.13.82.82,0,0,0,.2.35h0l0,0h-.05l-.18,0c-.13,0-.13,0-.16.15a1.2,1.2,0,0,1,0,.2,1.42,1.42,0,0,0-.16.36,2.55,2.55,0,0,1,0,.39.46.46,0,0,0,0,.26.25.25,0,0,0,.16.2l.16.07h0l.05,0,0,0s0,0,0,0l-.07,0,0,0h0a3.84,3.84,0,0,0-.18.35.33.33,0,0,0,.09.43.39.39,0,0,1,.19.26.53.53,0,0,0,.11.24,2.1,2.1,0,0,1,.39.86.5.5,0,0,0,.05.13c0,.06.12.11.17.07l.37-.24v0s0,0,.05,0l0-.07c0,.06,0,.06,0,.07l0,0,0,0a.71.71,0,0,1-.2.37.35.35,0,0,0,0,.43,1.51,1.51,0,0,0,.4.57v0h0a.82.82,0,0,0,.17.11.22.22,0,0,1,.16.26c0,.07,0,.15.05.19s.22.28.33.41a.42.42,0,0,1,.09.32.21.21,0,0,0,0,.12c.11.08.23.14.34.21a.31.31,0,0,1,.39.27.16.16,0,0,0,.12,0l.36-.19a1.77,1.77,0,0,0,.17-.12c.11-.07.24,0,.28.06a.65.65,0,0,0,.34.39c.06,0,.1.1.15.13s.14.08.19,0,.31,0,.46,0a.4.4,0,0,0,.23-.23c.07-.29,0-.58.06-.86a1,1,0,0,1,.08-.6.81.81,0,0,0,.07-.46c0-.13,0-.27,0-.4h0a0,0,0,0,1,0,0h-.09a0,0,0,0,1,0,0s0-.06.07,0l.06.07h0a.49.49,0,0,0,.19-.33,1.25,1.25,0,0,1,.26-.69.56.56,0,0,0,0-.7c-.08-.09,0-.16,0-.23a.87.87,0,0,0,.09-.11.17.17,0,0,0,0-.19.43.43,0,0,0-.09-.1c-.11-.14-.12-.15.06-.22s.21-.11.21-.23.09-.32.28-.34.43-.26.69-.26c.09,0,.11-.07.15-.12s.07-.14.12-.16a1.47,1.47,0,0,0,.77-.64s.08,0,.11-.07a.83.83,0,0,0,.35-.5,7.3,7.3,0,0,1,.31-.82c.07-.31.37-.46.47-.75.12-.12.3-.09.44-.16a1.77,1.77,0,0,0,.22-.16c.06,0,.11-.09.17-.09a.55.55,0,0,0,.37-.16,2.19,2.19,0,0,1,.62-.42,2.37,2.37,0,0,0,1-.77C161.8,116.59,162.16,116.18,162.47,115.74Zm254.08-.13a0,0,0,0,0,0,0s0,0,0,0a.1.1,0,0,1-.06,0s-.05-.05-.06-.08a.29.29,0,0,0-.08-.13l-.06,0a1.51,1.51,0,0,1-.22-.11s0,0,0,0h0a0,0,0,0,1,0,0v0s0,0,0,0a.43.43,0,0,1-.1-.09l-.08,0s-.05,0-.08,0h0v0a0,0,0,0,0,0,0l-.07,0v0h0a.08.08,0,0,0-.08,0s0,0,0,0a.14.14,0,0,1,.09,0,.16.16,0,0,0,0-.07s0,0,0,0a.13.13,0,0,1,0-.06.17.17,0,0,1,0-.12.13.13,0,0,0,0-.06.34.34,0,0,0-.13-.18l0,0a.16.16,0,0,0-.09,0l-.11,0,0,0a.23.23,0,0,0-.08-.09v0a.06.06,0,0,0,0,0,.2.2,0,0,0,0-.08l0,0-.05,0s0,0,0,0a.06.06,0,0,0,0-.08.12.12,0,0,1-.05,0s0,0,0,0,0,0,0,0h0l-.08,0s0,0,0,0h0s0,0,0,0a.09.09,0,0,1-.12,0s0,0-.07,0l-.08,0s0,0,0,0h0a.07.07,0,0,0,0-.06l0,0a.05.05,0,0,1,0,0,0,0,0,0,0,0,0h0s0,0,0,0a0,0,0,0,1-.05,0h-.05l0,0a0,0,0,0,1,0,0l.06,0a0,0,0,0,0,0,0h0a.07.07,0,0,0-.06,0,.14.14,0,0,1-.09,0,.34.34,0,0,0-.1,0s0,0,0,0a.06.06,0,0,0-.06,0l-.06,0a.06.06,0,0,1-.05,0l-.06,0s0,0,0,0h0l0-.06s0,0-.06-.07a.16.16,0,0,0-.12,0h0a.07.07,0,0,1-.08,0,.15.15,0,0,1-.08-.12.19.19,0,0,1,0-.08v0a.16.16,0,0,1,.05-.09s0,0,0,0l.06-.08a.36.36,0,0,1,0-.09s0,0,0,0l0,0h0a.1.1,0,0,0-.06-.05l-.08,0a.29.29,0,0,0-.1,0l-.07,0-.05,0h0a.14.14,0,0,0,.08-.09.08.08,0,0,1,0,0l0,0a0,0,0,0,0,.05,0l0-.06a.12.12,0,0,1,0-.07l.05,0s0,0,0,0,0,0,0,0a.18.18,0,0,0-.12,0l-.09,0a.08.08,0,0,0-.08,0l0,0a.27.27,0,0,1-.11.1s-.05,0-.07,0l0,0h-.1a.05.05,0,0,1-.06,0,.12.12,0,0,0-.05,0,.11.11,0,0,1,0-.07.36.36,0,0,0,0-.11.09.09,0,0,1,0,0s0-.06,0-.09,0,0,0-.06a1.62,1.62,0,0,1,.1-.18s0,0,0,0a.16.16,0,0,0,.06-.08.31.31,0,0,1,.06-.13.14.14,0,0,1,.11,0,.2.2,0,0,0,.13,0h.1a.15.15,0,0,1,.07,0l.06,0s0,0,0,0,.05.06.08.07h.06l0,0s0,0,0,0h0l.13.05a.14.14,0,0,1,.11.09s0,0,0,0h0l0,0,0,.1s0,0,0,0l0,0a0,0,0,0,0,0,0,1,1,0,0,0,0,.17.19.19,0,0,0,0,.07,0,0,0,0,0,.06,0,.31.31,0,0,0,.09-.11v0a.22.22,0,0,1,0-.08s0,0,0-.08h0a.65.65,0,0,1,.06-.23l0,0a.38.38,0,0,1,.15,0h0l.05,0,0,0,0,0a.08.08,0,0,0,.07,0,.2.2,0,0,1,.11,0,.05.05,0,0,0,0,0s0,0,0,0h0s0,0,0,0a.09.09,0,0,1,0,0,.09.09,0,0,0,0-.07v0a.3.3,0,0,1,0-.08h0s0,0,0,0v0h0l.08-.06,0,0a0,0,0,0,1,0,0h.06a.18.18,0,0,0,.09-.08s0,0,.07,0h.09s0,0,0,0,0,0,0,0h0l.16,0h0s0,0,0,0a.07.07,0,0,1,0-.06l.05,0a.12.12,0,0,1,.1,0h.07a0,0,0,0,1,.05,0,.51.51,0,0,0,.13,0l0,0s0,0,0,0h.11a0,0,0,0,1,0,0h0a.12.12,0,0,0-.08,0s0,0,0,0a.14.14,0,0,0,0,.06h0a.28.28,0,0,0,.12,0s0,0,.06,0h.21s.05,0,.08,0h0v0s0,0,0-.08h0s0,0,0,0a.39.39,0,0,0-.11.06s0,0,0,0h-.06l0,0s0,0,0,0a.06.06,0,0,1,0-.08.11.11,0,0,1,0-.09s0,0,0,0h.07a.05.05,0,0,0,0,0s0,0,0,0a.09.09,0,0,0-.08-.05.82.82,0,0,0-.27,0h0l0,0h0s0,0,0,0h0l0,0a.27.27,0,0,1,.13,0,.07.07,0,0,0,.07,0h0l.07,0s0,0,.06,0a1.23,1.23,0,0,1,.26.12s.08,0,.11,0h.06a.11.11,0,0,0,.08,0,.09.09,0,0,1,.07,0h.05a.33.33,0,0,0,.14,0,.07.07,0,0,0,0-.05,0,0,0,0,1,0,0s0,0,0,0a0,0,0,0,0,0,0s0,0,0-.06h0v0s0,0,0,0h0s0,0,0,0,0,0,0,0h0a.14.14,0,0,0-.07-.08,0,0,0,0,0,0,0,.12.12,0,0,0,0-.1s0,0,0,0,0,0,0,0l0,0s0,0,0,0a.11.11,0,0,1,0-.08s0,0,0,0,0,0,0,0,0,0,0,0,0,0,0,0a.13.13,0,0,0,0-.06.66.66,0,0,1,0-.14s0,0,0,0h0l-.11.08a.15.15,0,0,1-.12.07h-.09s0,0,0,0,0,0,0,0a.08.08,0,0,0,0,0,.06.06,0,0,1,0-.06s0,0,0-.09l0,0,.07-.07a0,0,0,0,0,0,0s0,0-.06-.06l0,0a0,0,0,0,1,0,0s0,0,0,0a.19.19,0,0,1,0-.08.43.43,0,0,1,0-.05.07.07,0,0,0-.06,0h0s-.07,0-.09-.07l0,0a.08.08,0,0,0-.11,0,.06.06,0,0,0,0,.07s0,0,0,0l-.06,0s0,.06,0,.08a.06.06,0,0,0,0,0,0,0,0,0,1,0,0h0a.39.39,0,0,1-.11.06,0,0,0,0,0,0,.06s0,0,0,0v0a.43.43,0,0,1,0,.11s0,.07,0,.11h-.07a.29.29,0,0,1-.16,0h-.08l0,0a.56.56,0,0,1,0,.12l0,.07,0,.07a0,0,0,0,1,0,0l0,0h0a.07.07,0,0,0-.06,0l0,0v0a.07.07,0,0,0,0,0,.5.5,0,0,1,0-.12s0,0,0,0a.27.27,0,0,0,.09-.12s0,0,0,0l0,0s0,0,0,0a.91.91,0,0,0-.14-.07l0,0a.17.17,0,0,0-.06-.1.31.31,0,0,1-.05-.1.16.16,0,0,0-.05-.11l-.07-.08,0,0s-.06,0-.09,0h0s.05,0,.05-.07l0-.1v-.06h0s0,0,0,0a0,0,0,0,1,0,0l0-.05a.4.4,0,0,1,.18-.16l.06,0a.26.26,0,0,1,.16-.07.16.16,0,0,0,.09-.05h0l0,0a.05.05,0,0,0,.07,0s0,0,0,0h0a.09.09,0,0,0,.11,0h0l0,0s0,0,.05,0l.19-.09h0s0,0,0,0l.08,0h0s0,0,0,0h0s0,0,0,0,.06,0,.06,0h0a.17.17,0,0,0,.14,0,.19.19,0,0,0,.1,0h0s0,0,.06,0,0,0,0,0v0a.06.06,0,0,1,0-.06l0,0h0l0,0s.05,0,.06,0,0,0,0,0,0,0,0,0a.06.06,0,0,1,0-.07s0,0,0,0,0,0,0,0,0,0-.05,0h0a0,0,0,0,0-.06,0s-.05,0-.05.07v0l0,0s-.05,0-.07,0l0,0h0s0,0,0,0a.05.05,0,0,0,0,0s0,0,0,0l0,0h0a0,0,0,0,1,0,0v-.06a.13.13,0,0,1,.07-.08s0,0,0,0a.17.17,0,0,0,0-.12,0,0,0,0,0,0,0l-.07,0s0,0,0,0h0a0,0,0,0,1,0,0,.2.2,0,0,0,.05-.09s0,0,0,0,0,0,0,0a.1.1,0,0,0,0,0l0,0s0,0,0,0l.07,0s0,0,0,0a0,0,0,0,0,0,0,.28.28,0,0,1,.07-.17s0,0,0,0,0-.08,0-.12l0,0,.09,0a.08.08,0,0,0,0,0h0a0,0,0,0,1,0,0,.08.08,0,0,1,0,0,0,0,0,0,0,.05,0h0l.17-.08,0,0a.06.06,0,0,0,0-.06h0a.2.2,0,0,1-.08-.08l0,0a.13.13,0,0,0-.08,0h0a.15.15,0,0,1-.07,0l-.05,0-.08.08,0,0a.23.23,0,0,1-.07.1l0,0-.07,0s0,0,0,0h0a.16.16,0,0,0-.12.09.08.08,0,0,1,0,0h0a.07.07,0,0,0,0,.05.08.08,0,0,0,0,.07v0h0a.21.21,0,0,1,0,.06h0l-.05,0s0,0,0,0h0s0,0,0,0l-.06,0a.11.11,0,0,1-.08,0,.06.06,0,0,0-.07,0,.21.21,0,0,0,0,.06,0,0,0,0,1,0,0h0v0s0,0,0,0l.08,0v0s0,0,0-.07h0l0,0a.05.05,0,0,0,0,0H416s0,0,0-.07,0,0,0,0,0,0,0,0h0a.08.08,0,0,1-.07-.08v0s0,0,0,0l-.05,0a.17.17,0,0,1-.12,0h0s0,0,0,0a.2.2,0,0,1,.06.12h-.05s0,0,0,0l0,0s0,0,0,0l0,0,0,0,0,0-.07,0h0l0,0a.21.21,0,0,1,0-.06.1.1,0,0,0,0-.07.05.05,0,0,1,0,0s0-.06,0-.09a0,0,0,0,0,0,0s0,0,0-.06l-.14,0-.05,0a0,0,0,0,0,0,0s0,0,0,0h0a.11.11,0,0,0-.06,0l-.05.09s0,0,0,0h0s0,0,0,0,0,0,0,0a.15.15,0,0,1,0-.07s0,0,0-.06a0,0,0,0,0,0,0h0a.29.29,0,0,1-.24-.15s0,0,0,0,0,0,0,0h0s.07,0,.07,0v-.06a.06.06,0,0,0-.05-.06.11.11,0,0,1-.07-.06,1,1,0,0,0-.08-.11.1.1,0,0,1,0-.09.13.13,0,0,0,0-.09.06.06,0,0,0-.09,0h-.06s0,0,0,0a.22.22,0,0,0,.07-.09h0l-.1,0h0v0a.09.09,0,0,1,0-.07.69.69,0,0,0,.05-.13,0,0,0,0,0,0,0h0a0,0,0,0,0,0,0l0,0h-.07l0,0v0h0s0,0,0,0h0l0,0v0l-.07,0a.39.39,0,0,1-.15,0H414s-.07,0-.1,0h0s0,0,0,0,0,0,0,0h-.1a.07.07,0,0,0-.07,0h0l0,0a.1.1,0,0,1,0-.07v-.07a.11.11,0,0,0,0,0,.35.35,0,0,0-.05-.08.22.22,0,0,1-.06-.13v0s0,0,0,0l0,0a.13.13,0,0,1-.06,0,.31.31,0,0,0-.07-.09l0,0a.14.14,0,0,1,0-.07,0,0,0,0,0,0,0h0s0,0,0,0,0-.06,0-.09h0s0,0,0,0,0,0,0,0l0,0,0,0s0,0,0,0,0,0,0,0h-.06a0,0,0,0,1,0,0s0,0,0,0h.06a0,0,0,0,1,0,0h0a.12.12,0,0,0,0-.08s0,0,0,0H413a.1.1,0,0,1-.09,0l0,0a.06.06,0,0,0-.08,0l0,0s0,0,0,0a.11.11,0,0,1-.08,0,.14.14,0,0,0-.11,0,1.94,1.94,0,0,0-.2,0l0,0a.19.19,0,0,1-.2-.05h0a0,0,0,0,0-.07,0l-.06,0a.07.07,0,0,0,0,.07v.07a.2.2,0,0,1-.07.17,0,0,0,0,0,0,0l0,0v0h0a0,0,0,0,0,0,0l0,.08h.05a.09.09,0,0,1,.07,0,0,0,0,0,1,0,0h0a.18.18,0,0,1-.07,0h0s0,0,0,0h-.06a0,0,0,0,1-.05,0l0,0s0,0,0,0l0,0a0,0,0,0,0,0-.06l-.07,0a0,0,0,0,0-.05,0s0,0-.06,0h-.05a.57.57,0,0,0-.13,0s0,0,0,0a.19.19,0,0,1,0,.07s0,0,0,0h0l-.07.08s0,0,0,0,0,.08.07.09a.13.13,0,0,1,.09,0,.05.05,0,0,0,.05,0h.12s0,0,0,0,0,0,0,0l-.06.07a.1.1,0,0,1-.1,0l0,0,0,0a0,0,0,0,1,0,0s0,0,0,0a.1.1,0,0,1-.1,0h0v0s0,0-.05,0a.12.12,0,0,0-.11,0h0a1.46,1.46,0,0,0-.19.07s-.06,0-.07.09v0a.05.05,0,0,1,0,0,.1.1,0,0,0-.06.09v.07a0,0,0,0,0,0,0l0,0a.1.1,0,0,1,.07,0h0v0h0s0,0,0,0v0h0l0,0a.1.1,0,0,1-.05,0,0,0,0,0,0,0,0s0,0,0,0l0,0s0,0,0,0,.05,0,.08,0h0s0,.06,0,.1,0,0,0,0h0s0,0,0,0h.07s0,0,0,0l-.08,0a.4.4,0,0,1-.2.11h-.08l-.13,0a.09.09,0,0,0-.07,0h0a.1.1,0,0,0-.09,0l-.07,0a.15.15,0,0,1-.13,0h-.05a.08.08,0,0,0-.08,0h0l0,0h0l.05,0h.13a.11.11,0,0,0,.11,0h0v0s0,0,0,0v0s.06,0,.09,0h.09a.12.12,0,0,0,.1,0h.1s0,0,0,0,.05,0,.07,0a.09.09,0,0,0,.06,0h0a.39.39,0,0,1,.15,0,.14.14,0,0,0,.11,0h.08a0,0,0,0,0,0,0,0,0,0,0,1,0,0s0,0,0,0a0,0,0,0,1,.07,0h.05s0,0,.07,0,0,0,0,0h0a.37.37,0,0,1,.18,0s0,0,0,0,0,0,0,0h0a.11.11,0,0,0-.11,0s0,0,0,0a.57.57,0,0,1-.13.08s0,0,0,0,0,0,0,0h0s0,0,0,0a0,0,0,0,0,0,0h.18s.07,0,.1,0h0l0,0s0,0,0,0h0s0,0,0,0a.06.06,0,0,1,0,0,.05.05,0,0,1,0,0s0,0,0,0a0,0,0,0,0,0,0h.05v0s0,.08,0,.1a.09.09,0,0,1,0,.06v0s0,0,0,0h0a.13.13,0,0,1,.07.06,0,0,0,0,0,0,0h0a0,0,0,0,0,0,0,.06.06,0,0,0,.06,0h0s0,0,0,0,0,0,0,.06,0,0,0,0,0,0,0,0a.06.06,0,0,1,0,0,.28.28,0,0,0,0,.09l0,0,0,0v0h0v0a.07.07,0,0,0,0,.06h0a0,0,0,0,1,0,0h-.07s0,0,0,.05v.06h0a0,0,0,0,1,0,.06.19.19,0,0,0,0,.09h0l.05,0h0s0,0,0,0h0a.48.48,0,0,0,.11-.09h0a0,0,0,0,1,0,0,.1.1,0,0,1,0,0,0,0,0,0,0,0,0h0v0h0s0,0,0,0h0l0,0,0,0h0s0,0,0,0h0s0,0,0,.07a.06.06,0,0,0,0,0h0a0,0,0,0,0,0,0,.06.06,0,0,1,0,0s0,0,0,0,0,0,0,0,0,.06,0,.08a0,0,0,0,0,0,0h0l.06-.08h0v0h0s0,0,0,0h0s0,0,0,0a.05.05,0,0,0,0,0s0,0,0,0a0,0,0,0,1,0,0,.08.08,0,0,0-.05,0h0s0,0,0,0,0,0,0,0,0,0,0,0,0,0,0,0h.08a0,0,0,0,0,0,0l0,0a.07.07,0,0,0,0,0v0h0l0,.06a0,0,0,0,1,0,0l0,0h0s0,0,0,0,0,0,0,0h0V108l0,0a.05.05,0,0,0,0,0l0,0s0,0,0,0a.09.09,0,0,0,0,.06v0h0v0l0,0s0,0,0,0v.07s0,0,0,.05h-.05s-.05,0-.06-.06h0s0,0,0,0a.25.25,0,0,0,0-.12.05.05,0,0,1,0,0v0a.07.07,0,0,0,0-.08L412,108l0,0h0s0,0,0,0,0,0,0,.06v0l0,.06a1.52,1.52,0,0,1,.06.2l0,0h0a.05.05,0,0,0-.06,0l-.05.12a.37.37,0,0,1-.07.14.69.69,0,0,0-.11.13.32.32,0,0,1-.11.12.28.28,0,0,0-.08.11v0a.21.21,0,0,1-.09.13.08.08,0,0,0,0,0,.12.12,0,0,1,0,.1s0,0,0,0,0,0,0,0a.28.28,0,0,1,0,.09,0,0,0,0,0,0,0s0,0,0,0,0,0,0,0,0,0,0,0,0,.06,0,.09v0a.49.49,0,0,0,0,.12.07.07,0,0,1,0,0s0,0,0,0a.68.68,0,0,1,.12.12.11.11,0,0,1,0,.12.41.41,0,0,0,0,.11c0,.06,0,.13,0,.19a.13.13,0,0,0,0,.06.36.36,0,0,1,0,.11.08.08,0,0,1,0,0h-.07a.19.19,0,0,0,0,.09.26.26,0,0,1,.07.11,0,0,0,0,1,0,0s0,0,0,0a0,0,0,0,0,0,0,.64.64,0,0,1,.08.19s0,0,0,0,0,0,0,0a.25.25,0,0,0,0-.07s0-.09,0-.11v0s0-.06,0-.08,0-.06,0-.09a.68.68,0,0,0,0-.14.58.58,0,0,0,0-.14v0a.34.34,0,0,1,.05-.14s0,0,0,0,0,0,0,0a.11.11,0,0,1,0,.06.51.51,0,0,0,0,.13,1.29,1.29,0,0,0,0,.19s0,0,0,0a.11.11,0,0,0,0,.08l0,.06s0,0,0,0l0,0a0,0,0,0,0,0,0l0,.06s0,0,0,.06,0,0,0,0a.53.53,0,0,1,.06.32l0,0,0,0a.07.07,0,0,0,0,.09.09.09,0,0,0,0,.08.18.18,0,0,1,.05.07.18.18,0,0,0,.05.07l0,0,0,0a.33.33,0,0,0,.11.13l.06.06.08.06a.23.23,0,0,0,.21.07.09.09,0,0,1,.08,0l.1.18a.11.11,0,0,0,.06.07l.1.07a.57.57,0,0,0,.13.08,0,0,0,0,1,0,0,.29.29,0,0,0,0,.09.36.36,0,0,1,0,.09,0,0,0,0,1,0,.06s0,0,0,.06l0,0h0s0,.05,0,.08a.06.06,0,0,0,0,.07h0a.07.07,0,0,1,.07,0l.05.06s0,0,.06,0,0,0,0,0a0,0,0,0,1,0,0,.1.1,0,0,0,.07,0h0a.11.11,0,0,1,0,.08.08.08,0,0,0,0,.07s0,.06,0,.09a0,0,0,0,1,0,0,.56.56,0,0,1,0,.12.07.07,0,0,0,0,.06s0,0,0,0a.19.19,0,0,1-.1,0,.11.11,0,0,0-.09,0,.05.05,0,0,1-.05,0h-.06v0a.36.36,0,0,1-.1.11h0l0,.09a.1.1,0,0,0,0,.07h0v0a0,0,0,0,1,0,0l-.07,0a.07.07,0,0,0-.06.07v.05l0,0a0,0,0,0,0,0,0l0,.06a.16.16,0,0,1,0,.07.07.07,0,0,0,0,.06s0,0,0,0a.57.57,0,0,0,0,.13,1,1,0,0,0,0,.17.85.85,0,0,1,0,.17v0s0,0,0,.08.1.14.14.21l0,0s.06.05.07.09a1,1,0,0,1,.08.14.06.06,0,0,1,0,0,.09.09,0,0,0,0,0,.32.32,0,0,1,0,.09.06.06,0,0,0,0,0,.44.44,0,0,1-.07.19s0,0,0,0a1.61,1.61,0,0,1-.09.29l0,.07a.41.41,0,0,0-.05.09s0,0,0,.05a.16.16,0,0,1,0,.09.11.11,0,0,0,0,.08s0,.08,0,.12,0,0,0,0a.11.11,0,0,0,0,.05s0,0,0,0l0,0-.12.2,0,0s0,0,0,0,0,.08,0,.12a.1.1,0,0,1,0,.09s0,0,0,.05a.14.14,0,0,0,0,.06.09.09,0,0,0,0,.07v0s0,0-.06,0,0,0,0,0,0,.07,0,.1l0,0,0,0a.14.14,0,0,1,0-.06.06.06,0,0,0,0-.06h.05s0,0,0,0v0a.61.61,0,0,0-.05.12.61.61,0,0,1-.05.12s0,0,0,0a.11.11,0,0,1,0,.11s0,0,0,0h0v0s-.06,0-.07,0a.46.46,0,0,0-.07.07h0l.05,0a0,0,0,0,1,0,0s0,0,0,.07h-.06a0,0,0,0,0,0,0s0,0,0,0a0,0,0,0,1,0,0s0,0,0,0h0a0,0,0,0,1,0,0s0,0,0,0l0,0h0s0,0,0,0h0a.38.38,0,0,1,0,.1s0,0,0,0,0,0,0,0,0,0,0-.06h0v.07a0,0,0,0,1,0,0h-.07v0l0,0s0,0,0,.06a0,0,0,0,0,0,0l.05.06h0a0,0,0,0,1,0,0h0a0,0,0,0,1,0,0h0l-.07,0h0v0a.83.83,0,0,1,.08.12l0,.05h0l0,0h0s0,0,0,0v0h0s0,0,0,0,0,0,0,0a.07.07,0,0,1,0,.06s0,0,0,0,0,0,0,0,0,0,0,0v0s0,0,0,0l0,0h.06s0,0,0,0H413s0,0,0,0h0l0,0,.07,0h0s0,0,0,0l-.1-.1a0,0,0,0,1,0,0l0-.07a0,0,0,0,1,0-.05s0-.07-.05-.09h-.06s0,0-.06.06h0s0,0,0,0,0,0,.08,0h0s0,0,.05,0h0s0,0,0,0a.24.24,0,0,0,0-.08s0-.05,0-.08a.05.05,0,0,1,0-.06l0,0a.09.09,0,0,0,.06-.06s0,0,.05-.06l.08-.05a.05.05,0,0,0,0,0,0,0,0,0,0,0,0s0,0,0-.06l0,0,0-.06a.07.07,0,0,1,0-.09l.05,0h.09s0-.05,0-.08v0s0-.05.05-.06l.05,0h0s0,0,0,0a0,0,0,0,1,0,0h0v0h0a0,0,0,0,0,.05,0v-.05h0s-.06,0-.05,0V118s0,0,0,0l0,0a.09.09,0,0,0,.07,0,.08.08,0,0,0,.08,0,.13.13,0,0,1,0-.06l0-.06h0v0s0,0,0,0a.36.36,0,0,0,.21.05H414a.09.09,0,0,0,.08,0l.05-.06,0,0a0,0,0,0,0,0,0s0,0,0,0,0,0,0,0l0,0s0,0,0-.06,0,0-.05-.08h0c.05,0,.09,0,.12.08l0,0,.06,0a.15.15,0,0,0,.13,0s0,0,.06,0a.13.13,0,0,0,.07-.06l.05-.08h0a0,0,0,0,1,0,0h0a.12.12,0,0,1,.05,0s0,0,0,0v0s0,0,0,0a.75.75,0,0,1,.16-.15A.11.11,0,0,0,415,117h0a.15.15,0,0,1,.1-.13l.07,0a.27.27,0,0,1,.13,0h.06a.1.1,0,0,0,.05,0h0l.06,0,.05,0a.11.11,0,0,0,.11,0h.06s0,0,0,0a.05.05,0,0,1,0,0l.09-.08s.05,0,.05-.07,0,0,0-.06a.28.28,0,0,0,.08-.11s0-.1,0-.15a.49.49,0,0,1,0-.11,0,0,0,0,1,0,0,.15.15,0,0,0,.12-.07l0,0a.18.18,0,0,1,.07-.05l.1,0s.06,0,.09-.06a.38.38,0,0,0,.06-.13Zm2.66-6.87h0s-.06,0-.09,0v0A.18.18,0,0,1,419.21,108.74Zm-.7,0h0Zm.07-.29.07,0a.17.17,0,0,1,.13,0,0,0,0,0,1,0,0,0,0,0,0,1,0,0h0s-.08,0-.12-.06,0,0,0,0h0S418.57,108.42,418.58,108.42Zm-.13.24Zm-.22-.52h0v0S418.22,108.14,418.23,108.14Zm-.11,0,0,0v0s0,0,0,0a.1.1,0,0,0,0,0h0S418.09,108.18,418.12,108.15Zm-.22-.24s0,0,0,0h0Zm-.48.63h0l-.08,0v0A.08.08,0,0,1,417.42,108.54Zm-.4.32h0Zm.66-3.76h0a.83.83,0,0,1,0,.15h0s0,0,0,0a.14.14,0,0,1,0-.11S417.66,105.1,417.68,105.1Zm-.86,0h0s0,0,0,.06h0a.08.08,0,0,1,0,0h0s0,0,0,0h0s-.05,0-.06,0A0,0,0,0,1,416.82,105.06Zm-.25-.2h0S416.56,104.86,416.57,104.86Zm-.1,3.73h0s0,0,0,0h0Zm-.41.83h0a.21.21,0,0,1,.08,0l.14,0a.14.14,0,0,0,.09,0h0a.08.08,0,0,1,0,.08s-.1,0-.15,0a.66.66,0,0,0-.19-.09s0,0,0,0S416.06,109.43,416.06,109.42Zm-.07.13a0,0,0,0,1,0,0l-.18,0h-.14a.34.34,0,0,1-.14,0l0,0s0,0,0,0h0a.54.54,0,0,0,.22,0,.09.09,0,0,1,.07,0,.12.12,0,0,0,.09,0H416S416,109.54,416,109.55Zm-.2-.75a2.11,2.11,0,0,1,.27.18.08.08,0,0,1,0,0,.68.68,0,0,1,0,.14s0,0,0,0a0,0,0,0,1,0,0,.24.24,0,0,1,0-.1h0a0,0,0,0,0,0,0s0,0,0,0a.8.8,0,0,0-.15.17l0,0s0,0,0,0,0-.06,0-.09,0,0-.05,0h-.06l.06,0a.14.14,0,0,0,.06-.12.13.13,0,0,0,0-.06l-.06-.07a.06.06,0,0,1,0,0h0l-.09,0a.06.06,0,0,1-.07,0s-.06,0-.09,0a.56.56,0,0,0-.16.24.27.27,0,0,1-.19.17.05.05,0,0,1-.05,0,.4.4,0,0,1,.12-.23,1.13,1.13,0,0,0,.1-.13.11.11,0,0,0,0-.07,0,0,0,0,1,0,0h0c.17-.09.13-.08.31,0s.05,0,.07.07h.1s0,0,0,0Zm.42-1.3h0v0s0,0,0,0v0l0,0h0Zm-.58.48h0a0,0,0,0,1,0,0,.06.06,0,0,1,0,.06h0A.08.08,0,0,1,415.63,108Zm-.06-.26h0Zm.76-2.46s0,0,0,0a0,0,0,0,1,0,0s0,0,0,0,0,0,0,0a.05.05,0,0,1,0,0S416.32,105.26,416.33,105.26Zm-.07-.13h0Zm-.69,1.8h0Zm-.34.79h0l.08,0s0,0,0,0h0a.09.09,0,0,1-.06-.06h0S415.22,107.72,415.23,107.72Zm-.05.55a.69.69,0,0,0,.2,0,1.16,1.16,0,0,0,.18,0,.07.07,0,0,1,.06,0l0,0a.12.12,0,0,1,.07.13.06.06,0,0,0,0,.08.05.05,0,0,1,0,.08l0,.14s0,0-.05,0,0,0,0,0a.61.61,0,0,0-.13,0,.12.12,0,0,1-.1-.08s0,0,0,0,0,0,0,0,0,0,0,0a0,0,0,0,0,0,0,0,0,0,0,1,0,0h-.06a.78.78,0,0,1-.22,0s-.08,0-.09-.06,0,0-.07,0h0A.32.32,0,0,1,415.18,108.27Zm.23-1.19s0,0,0,0h0s0,0,0,0Zm.67-2.12h.06l0,0s-.05.06-.08.09a0,0,0,0,1-.06,0Q416,105,416.08,105Zm-.29.7h0v0h0l0,0h0Zm.14-.5h0Zm-.47,1.11v0h0Zm-.6,1.56s0,0,.05,0h0v.06h-.05S414.85,107.84,414.86,107.83Zm.34-1.06h0Zm.12-.48a0,0,0,0,1,0,0h0s0,0,0,0Zm-.41,1.11a.12.12,0,0,1-.09.11h0a.2.2,0,0,1,.08-.12h0Zm.19-.6h0S415.09,106.8,415.1,106.8Zm-.14.09s0,0,0,0a.1.1,0,0,1,0,.08.18.18,0,0,1,0,.1l-.05.13a.18.18,0,0,0,0,.06.08.08,0,0,1,0,0s0,0,0,0,0,0,0,0a.08.08,0,0,1,0-.07v0a.14.14,0,0,1,0-.12v0Zm-.24.15-.06,0s0,0,0,0h0v0s.05,0,.05-.07,0,0-.05-.07v0s0,0,0,0h0l.05,0h0s0,0,0-.08a.12.12,0,0,1,0-.11l0,0,0,0s0,0,0,.08h0c-.05,0-.06,0,0,.1s0,0,0,0h-.06v0Zm-.07.42h0a.38.38,0,0,1,0-.1l0,0h0v0h0v0h0a.34.34,0,0,0,0,.1Zm1-3h0v0h0S415.63,104.48,415.64,104.48Zm-.56,1.34a0,0,0,0,1,.05,0h0v0l-.09,0h0S415.07,105.83,415.08,105.82Zm.48-1.42s0,0,0,0h0S415.55,104.39,415.56,104.4Zm-.68,1.76H415l0,0h0c0-.13,0-.15.16-.18l0,0v0h0l-.1,0-.06.07s0,0,0,0h0l-.05,0h-.07Zm.78-2.23h0Zm-.2.25h0s0,0,0,0h0A0,0,0,0,1,415.46,104.18Zm-3.71.08h0Zm.15-.19h0a0,0,0,0,1,0,0h0Zm.09-.18h0v0h0Zm-.25.79s0,0,0,0a.14.14,0,0,1,0-.06s0,0,0,0h0a0,0,0,0,1,0,0h0v0h0s0,.07,0,.11Zm.07-.09h0s0,0,0,0v0S411.82,104.6,411.81,104.59Zm2.41-2.65h0s0,0,0,0,0,0,0,0h0s0,0,0,.07S414.23,102,414.22,101.94Zm.23,0h0Zm-.81,2.47h0Zm-.2,1.28h0Zm1.35-3.74h0l-.15,0h0l0,0h0s0,0,0,0h0l0,0h0a.23.23,0,0,1,.16,0Zm-.33,4.36h0a0,0,0,0,1,0,0s0,0,0,0v0S414.48,106.33,414.46,106.32Zm.16-.48h0v0a.06.06,0,0,1,.06,0h0A.07.07,0,0,1,414.62,105.84Zm.41-1h0Zm.49-1.14h0v0h0S415.51,103.69,415.52,103.7Zm-.93-.94h0s0,0,0,0Zm-.45,1.67h0Zm.37-1s-.08,0-.12,0,0,0,0,0l.08,0a.17.17,0,0,1,.1,0s0,0,.06,0h0l.06,0s0,0,0,0,0,0,0-.05a.15.15,0,0,0-.09-.06l-.18-.08h0l0,0s0,0,0,0l.22.07a.47.47,0,0,0,.17,0l.15,0h0s0,0,0,0,0,0,0,0H415s0,0,0,0h0l0,0a.15.15,0,0,0,.2.07h0a0,0,0,0,1,0,0l0,0-.08,0,0,0s-.05,0-.08,0a.11.11,0,0,0-.12-.06l0,0a.1.1,0,0,1-.12.05h0s0,0,0-.05,0-.06,0-.06h-.09Zm.32.22h0s0,0,0,0h0s0,0,0,0Zm-.28.41h0s0-.06,0-.1h.05S414.55,104,414.55,104.06Zm-.38.73h0Zm.08.53h0v0h0Zm.28-.64a.09.09,0,0,1-.09,0l-.13,0a.1.1,0,0,1-.08-.07l0-.08h0s0,0,0,0h.05l.08,0a.1.1,0,0,1,.09,0h0a.05.05,0,0,0,.05,0,.11.11,0,0,1,0,0,.28.28,0,0,1,0-.09s0,0,0,0h0a.48.48,0,0,1,.05.17.12.12,0,0,0,.05,0,.23.23,0,0,0,.2,0,.37.37,0,0,1,.18,0l.07,0h0s0,0,0,0h0l-.05,0H415l-.16,0-.2,0h0A.09.09,0,0,0,414.53,104.68Zm-.34,1.3h0v0S414.2,106,414.19,106Zm.24-.61h0l0,0,.2,0s0,0,0,0a.14.14,0,0,0,.08.07v0h0l-.1,0h0a.12.12,0,0,0-.13,0Zm-1.14,8.15h0s0,0,0-.06h0s0,0,0,0Zm1.57.82,0,0,0,0s0-.06.06-.09h0v0s0,0,0,0Zm-2.48,8h0s0,0,0,0Zm1.68-4.68h0a.11.11,0,0,1-.07-.09s0,0,0,0h0a.22.22,0,0,1,.05.11h0ZM412.5,123h0Zm0,.18h0a0,0,0,0,1,0,0l0,0Zm0,.18h0Zm.11-.09Zm.19.15s0,0,0,0h-.05S412.77,123.42,412.79,123.42Zm-.14.07h0l.05,0h0a0,0,0,0,0,0,0s0,0,0,0h0s0,0,0,0h-.06s0,0,0,0v0h0s0,0,0,0h0v0Zm3.13-8.5h0Zm-1.47,4.9,0,0h0v0Zm2.27-4.31h0A0,0,0,0,1,416.58,115.58Zm.33.89a0,0,0,0,1-.05,0s0,0,0,0l0,0v0a0,0,0,0,0,0,0h0Zm.09.22h0Zm-.07.34h0v0s0,0,0,0a0,0,0,0,1,0,0,.09.09,0,0,0,0,0Zm-.5,1.74h0Zm-13-32a.09.09,0,0,0,0-.07l0,0a1.75,1.75,0,0,1-.46,0,.35.35,0,0,0-.32.08h-.07l0,0s0,0,0-.06l.16-.11a.18.18,0,0,0,.05-.21l-.1-.21s0-.09.06-.09l.06,0a2.52,2.52,0,0,0,.3.35.28.28,0,0,0,.29.06.34.34,0,0,1,.14,0c.14,0,.15-.06.12-.18s-.07-.22-.08-.33-.17-.17-.16-.3-.05,0-.08-.08a.8.8,0,0,0-.38-.24l-.18-.08a.2.2,0,0,1-.09-.07,2.56,2.56,0,0,1-.11-.24s0,0,0-.07h.06a.33.33,0,0,1,.06.1.33.33,0,0,0,.26.25.57.57,0,0,0,.25.08s.09,0,.08-.07a.23.23,0,0,1,0-.18.19.19,0,0,1,0-.18.14.14,0,0,0-.07-.13,2.46,2.46,0,0,1-.29-.09s0,0-.06-.08h0a.38.38,0,0,1-.24,0s0,0,0,0l0,0s.05,0,.07,0l.15.09h0l.1,0a.21.21,0,0,0,.24-.07.72.72,0,0,1,.25-.18s.05,0,.06-.09a.75.75,0,0,0,0-.15.1.1,0,0,0-.1-.1.78.78,0,0,1-.3,0,0,0,0,0,1,0,0s0,0,0,0a.26.26,0,0,0,.33-.11.3.3,0,0,1,.1,0,.19.19,0,0,0,0-.32.26.26,0,0,1-.16-.15s-.05,0-.09-.06-.05,0-.05-.05,0,0,.06,0a.17.17,0,0,0,.1,0,.12.12,0,0,0,0-.14l-.06-.26a.18.18,0,0,0-.12-.15c-.09,0,0-.08,0-.14a.07.07,0,0,0-.05-.09c-.06,0-.15,0-.21,0h-.07a.11.11,0,0,1-.1-.08.15.15,0,0,1,0-.13l.11.06h0l-.1-.06h0a1.71,1.71,0,0,1,.13-.23s.09-.06.13,0h0c.09.06.21.09.23.23a.71.71,0,0,0,.15.3h0s0-.08,0-.11a.54.54,0,0,1,0-.41.66.66,0,0,0,0-.34c0-.05-.09-.12-.15-.11a.76.76,0,0,1-.15,0,.45.45,0,0,1-.11,0s0,0,0,0,0,0,0-.06.14-.09.05-.17A.39.39,0,0,0,403,81l-.13-.07a0,0,0,0,1,0,0,0,0,0,0,1,0,0c.12,0,.16,0,.16-.16a1.48,1.48,0,0,0,0-.42,1.41,1.41,0,0,1,.09-1c0-.09.07-.19.11-.29s0-.07,0-.11,0-.09,0-.13a.35.35,0,0,0,.17-.24s0-.11-.07-.11h-.12l-.15,0,0,0a.11.11,0,0,1,0-.06.2.2,0,0,1,.18,0,.34.34,0,0,0,.28-.11l.08-.08a.09.09,0,0,0,0-.11l0-.06s0-.09,0-.1a.23.23,0,0,0,.21-.14.57.57,0,0,1,.08-.13c.14-.19.13-.27-.08-.4l-.06,0a.78.78,0,0,0-.63-.07,1.24,1.24,0,0,0-.34.18.12.12,0,0,0,0,.07s0,.07,0,.11,0,.08-.1.09a.25.25,0,0,1-.15,0,.06.06,0,0,0-.09,0,.89.89,0,0,1-.41.54,1,1,0,0,0-.28.23v0l-.06.09a.93.93,0,0,1-.05.1l0,0v0l.05-.09.06-.1h0a.15.15,0,0,1,0-.09.77.77,0,0,1,.22-.31.48.48,0,0,0,.19-.37s0-.07,0-.11c0-.32-.13-.34-.34-.25,0,0,0,0,0,0a.1.1,0,0,0,0,.06,1.28,1.28,0,0,1,0,.19.17.17,0,0,1-.13.16l0,0a.91.91,0,0,0-.4.1s0,0,0,0,0,0,0,0l.18-.14a.21.21,0,0,0,.08-.16c0-.05-.05-.11-.09-.11l-.27,0a1.28,1.28,0,0,0-.84.34l-.11.1-.19.13-.06,0v0a.57.57,0,0,1,.11-.11,4.08,4.08,0,0,0,.33-.25.93.93,0,0,1,.67-.26,1.3,1.3,0,0,0,.48-.11c.14,0,.28-.13.42-.18a.91.91,0,0,0,.36-.34.16.16,0,0,0-.06-.23,1.75,1.75,0,0,0-.32-.12.46.46,0,0,0-.5.07.11.11,0,0,1-.07,0h0a0,0,0,0,1,0,0l.09-.07a.2.2,0,0,0,0-.28.17.17,0,0,0-.15,0,.92.92,0,0,1-.68.19.45.45,0,0,0-.23,0c-.08,0-.16.08-.24.12a.76.76,0,0,1-.35.14.39.39,0,0,0-.23.13.46.46,0,0,1-.1,0h0s0,0,0,0,.07-.08.11-.1a1.25,1.25,0,0,0,.29-.11,2.66,2.66,0,0,1,.52-.23,1.14,1.14,0,0,1,.45-.1.48.48,0,0,0,.36-.19s0-.06,0-.07a.53.53,0,0,0-.42-.15c-.28,0-.56,0-.84,0a2.32,2.32,0,0,0-.38,0c-.15,0-.25.13-.39.16a.66.66,0,0,0-.15.3s0,0,0,0a0,0,0,0,1,0,0v0h0v.07h0l0,0h0a.36.36,0,0,1-.25,0,0,0,0,0,0-.06,0v0l.06.1s0,0,0,.06-.05,0-.07,0a.92.92,0,0,1-.33-.06.19.19,0,0,0-.21.06.33.33,0,0,1-.17.14.07.07,0,0,0,0,.09,2.44,2.44,0,0,0,.06.26.15.15,0,0,1,0,.14s0,.09-.07.13a.08.08,0,0,1-.06,0,.58.58,0,0,0-.26,0s-.07.07-.06.09a.36.36,0,0,0,0,.11c.07.13.13.26.2.38a3.07,3.07,0,0,0,.27.46s0,.07,0,.08-.12,0-.17,0a.2.2,0,0,0-.15-.1s0,0,0,0,0-.13,0-.15a.28.28,0,0,1-.18-.12,3.47,3.47,0,0,0-.25-.29.31.31,0,0,0-.2-.11c-.07,0-.14,0-.14.09v.08a1,1,0,0,0,.09.45.39.39,0,0,1,0,.18c0,.07-.11.06-.17.07l0,0-.05.06s-.06,0-.08,0,0-.13,0-.18a1.35,1.35,0,0,1-.14-.35s0-.06-.06-.09l0,0s-.05,0-.06,0a.31.31,0,0,0,0,.19.41.41,0,0,1,.05.18.45.45,0,0,1-.07.18v0h0l-.06.08-.07.11a0,0,0,0,1,0,0v0s0,0,0,0v0l.07-.11.06-.09h0a.2.2,0,0,1-.06-.12,2.44,2.44,0,0,0,0-.27.48.48,0,0,0-.06-.26s-.1-.07-.13,0-.12.06-.17.1a1,1,0,0,1-.32.19,5.21,5.21,0,0,1-.5.2.13.13,0,0,0-.07.16l0,.11s0,0,0,0h0a1,1,0,0,0-.13-.09c-.07,0-.12,0-.17.08a.21.21,0,0,0-.07.17.37.37,0,0,0,0,.11,1,1,0,0,1,0,.23c0,.07-.07.13-.1.2s0,.05,0,.08-.08.08-.13.05a.26.26,0,0,0-.28,0,.44.44,0,0,0-.26.26.53.53,0,0,1-.27.26.56.56,0,0,1-.05.08,1.07,1.07,0,0,0-.18.41c0,.11,0,.18.13.18h.29v0h0l0,.06a.08.08,0,0,1,0,.1.22.22,0,0,0-.07.17.36.36,0,0,1,0,.15,3,3,0,0,1-.16.31.11.11,0,0,1-.12.07,1,1,0,0,0-.48.09.29.29,0,0,0-.16.1.5.5,0,0,1-.21.17c-.16.07-.31.16-.47.24a.43.43,0,0,0-.23.33.18.18,0,0,0,.07.23c.12.07.18.2.31.26h0l0,0s0,0,0,0v0h0a1.22,1.22,0,0,0,.15.17.19.19,0,0,0,.21,0c.06,0,.1-.09.17-.08a.4.4,0,0,0,.22-.06.09.09,0,0,1,.07,0s0,0,0,0a.06.06,0,0,1,0,.07.2.2,0,0,1-.11,0,.5.5,0,0,0-.42.13.29.29,0,0,1-.18.07.38.38,0,0,0-.2.1c-.08.09-.08.26,0,.3s.19.14.31.16,0,0,0,.06a1.06,1.06,0,0,0-.1.12.09.09,0,0,0,0,.1.76.76,0,0,0,.4.28c.11,0,.15,0,.19-.11s0-.07.1-.07a.23.23,0,0,1,.14,0s.06,0,.07,0,.33,0,.44-.19h0a2.54,2.54,0,0,1,.48.09l.4.15.13.08a.14.14,0,0,1,.05.1.41.41,0,0,1,0,.19c0,.12,0,.19.12.26a.38.38,0,0,1,.09.12.14.14,0,0,1,0,.17s0,.05,0,.06H395c.05,0,.08,0,.07.07s0,0,0,.07a.1.1,0,0,0,0,.16.08.08,0,0,1,0,.06s0,.08,0,.11.07.07.09.12.05.14.09.21a.24.24,0,0,1,0,.22.33.33,0,0,0,0,.06s.05,0,.07,0,.06.1,0,.14a.23.23,0,0,0-.11.09,0,0,0,0,0,0,.06s.13,0,0,.07-.05.16,0,.25h.08v0h0l-.06.09h0a.59.59,0,0,1,0,.29s0,.13.06.16.29.07.37-.09a.49.49,0,0,0,0-.11.14.14,0,0,1,.13-.06l.06,0h.07s0,0,0,.07l-.06.2a.06.06,0,0,0,0,.09h.11a.09.09,0,0,1,.07.11s0,.07,0,.1h0a.15.15,0,0,1,.19.1s0,0,0,0,0,0,0,0l-.15-.14h0a.76.76,0,0,1-.3,0h-.19a.12.12,0,0,0-.09.17.05.05,0,0,0,0,0s.05.07,0,.1,0,0-.07.08a.14.14,0,0,0-.06.13.82.82,0,0,0,0,.22.46.46,0,0,0,.29.29h0a.6.6,0,0,0,.38-.17.14.14,0,0,0,0-.2.21.21,0,0,0-.1-.06.27.27,0,0,1-.13-.15h0l0,0h0v0a1.23,1.23,0,0,0,.54,0,.06.06,0,0,1,.07.07.75.75,0,0,1-.07.12h0v0c0,.05,0,.11,0,.15a.18.18,0,0,0,0,.11c0,.07,0,.07,0,.1s-.08,0-.07.07,0,.27-.22.29a.65.65,0,0,0-.17.08.55.55,0,0,0,.12.19h-.1c-.08,0-.08,0-.09.09s0,.08,0,.11a.88.88,0,0,0-.09.2.81.81,0,0,1,0,.22.38.38,0,0,0,0,.15.14.14,0,0,0,.09.11l.1,0h0l0,0s0,0,0,0l0,0v0h0l-.11.19a.19.19,0,0,0,.05.24.24.24,0,0,1,.11.15.59.59,0,0,0,.06.14,1.11,1.11,0,0,1,.22.48l0,.07s.07.06.09,0l.21-.13v0h0l0,0s0,0,0,0v0h0a.43.43,0,0,1-.11.21.2.2,0,0,0,0,.24.9.9,0,0,0,.23.32h0v0h0a.71.71,0,0,0,.09.07c.07,0,.09.07.09.14s0,.09,0,.11.13.15.19.23a.2.2,0,0,1,0,.18.11.11,0,0,0,0,.06l.19.13a.17.17,0,0,1,.22.14s.05,0,.07,0l.2-.11.09-.06c.07,0,.14,0,.16,0a.35.35,0,0,0,.19.22s.06,0,.09.07.08,0,.1,0,.18,0,.26,0a.21.21,0,0,0,.13-.13c0-.16,0-.33,0-.49a.54.54,0,0,1,0-.33.48.48,0,0,0,0-.26,1.62,1.62,0,0,1,0-.22H399s0,0,0,0,0,0,0,0l0,0h0a.27.27,0,0,0,.11-.19.77.77,0,0,1,.14-.39.3.3,0,0,0,0-.39s0-.09,0-.13l0-.06a.11.11,0,0,0,0-.11.12.12,0,0,0,0,0c-.06-.08-.07-.09,0-.13s.12-.06.12-.13a.18.18,0,0,1,.16-.19c.14,0,.24-.14.39-.14s.06,0,.08-.07,0-.08.07-.09a.84.84,0,0,0,.43-.36s0,0,.06,0a.46.46,0,0,0,.2-.28,3.61,3.61,0,0,1,.17-.46c0-.17.21-.26.27-.42s.17,0,.24-.09l.13-.09a.19.19,0,0,1,.1,0,.37.37,0,0,0,.2-.09,1.45,1.45,0,0,1,.35-.24,1.24,1.24,0,0,0,.53-.43C403.06,87.29,403.26,87.06,403.43,86.81ZM161.48,101.63s0,0,.05,0l.06,0s0,.07,0,.08a.06.06,0,0,1-.06,0S161.47,101.64,161.48,101.63Zm-.41.33s0-.07.07-.09,0,0,.06,0a.08.08,0,0,1,.05.11.39.39,0,0,1-.08.1C161.11,102.12,161.05,102.05,161.07,102Zm-4.83,19.66h-.05s0,0,0,0l.05,0ZM152.91,98.2s-.06-.06,0,0l.07,0Zm.29.18c-.06,0-.07,0-.08-.09h0s0,0-.06,0l.07,0v0l.08,0S153.2,98.38,153.2,98.38Zm6.94,17,0,0h0Zm-.11-1.14,0,0h0l0,0Z"/></g></g></svg>